<?xml version="1.0" encoding="UTF-8"?>
<svg width="145px" height="47px" viewBox="0 0 145 47" version="1.1" xmlns="http://www.w3.org/2000/svg" xmlns:xlink="http://www.w3.org/1999/xlink">
    <!-- Generator: Sketch 50 (54983) - http://www.bohemiancoding.com/sketch -->
    <title>logo</title>
    <desc>Created with Sketch.</desc>
    <defs></defs>
    <g id="Page-1" stroke="none" stroke-width="1" fill="none" fill-rule="evenodd">
        <g id="logo" fill-rule="nonzero">
            <g id="Group" transform="translate(46.000000, 4.000000)" fill="#000000">
                <path d="M6.4,6.6 L2.6,17.7 L0.9,17.1 L4.7,6 L6.4,6.6 Z M12.7,0.7 L12.7,22.7 L7.2,22.7 L7.2,20.9 L10.9,20.9 L10.9,0.7 L12.7,0.7 Z M18.7,6 L22.5,17.1 L20.8,17.7 L17,6.6 L18.7,6 Z" id="Shape"></path>
                <path d="M47.7,3.8 L42.8,3.8 L42.8,5.1 L41,5.1 L41,3.8 L32.4,3.8 L32.4,5.1 L30.6,5.1 L30.6,3.8 L25.7,3.8 L25.7,2 L30.6,2 L30.6,0.7 L32.4,0.7 L32.4,2 L41,2 L41,0.7 L42.8,0.7 L42.8,2 L47.7,2 L47.7,3.8 Z M26.3,9.8 L26.3,5.9 L47.2,5.9 L47.2,9.8 L45.4,9.8 L45.4,7.7 L36.8,7.7 L36.8,9.3 L44.2,9.3 L44.2,14 L42.4,14 L42.4,11 L31.4,11 L31.4,15.1 L46,15.1 L46,22.6 L40.3,22.6 L40.3,20.8 L44.2,20.8 L44.2,16.8 L29.7,16.8 L29.7,9.1 L35,9.1 L35,7.5 L28.1,7.5 L28.1,9.6 L26.3,9.6 L26.3,9.8 Z M42.2,20.2 L26.4,20.2 L26.4,18.4 L42.2,18.4 L42.2,20.2 Z M37.1,14.5 L35.2,12.6 L36.5,11.3 L38.4,13.2 L37.1,14.5 Z" id="Shape"></path>
                <polygon id="Shape" points="72 12.9 72 22.6 51.4 22.6 51.4 12.9 53.2 12.9 53.2 20.8 60.8 20.8 60.8 10.9 51.4 10.9 51.4 2.5 53.2 2.5 53.2 9.1 60.8 9.1 60.8 0.7 62.6 0.7 62.6 9.1 70.2 9.1 70.2 2.5 72 2.5 72 10.9 62.6 10.9 62.6 20.9 70.2 20.9 70.2 13 72 13"></polygon>
                <path d="M96.9,1.5 L96.9,22.7 L76.3,22.7 L76.3,1.5 C76.4,1.5 96.9,1.5 96.9,1.5 Z M78.2,3.2 L78.2,20.9 L95.2,20.9 L95.2,3.2 L78.2,3.2 Z M93.6,18.7 L79.6,18.7 L79.6,16.9 L85.7,16.9 L85.7,12.4 L80.5,12.4 L80.5,10.6 L85.7,10.6 L85.7,7.2 L79.9,7.2 L79.9,5.4 L93.2,5.4 L93.2,7.2 L87.5,7.2 L87.5,10.6 L92.7,10.6 L92.7,12.4 L87.5,12.4 L87.5,16.9 L93.6,16.9 L93.6,18.7 Z M91.2,16.3 L89.3,14.4 L90.6,13.1 L92.5,15 L91.2,16.3 Z" id="Shape"></path>
            </g>
            <g id="Group" transform="translate(48.000000, 31.000000)" fill="#000000">
                <path d="M0.7,1.4 L9.5,1.4 L9.5,12.6 L8.8,12.6 L8.8,11.6 L1.5,11.6 L1.5,12.6 L0.8,12.6 L0.7,1.4 Z M1.4,2.1 L1.4,6.2 L8.7,6.2 L8.7,2.1 L1.4,2.1 Z M1.4,6.8 L1.4,11.1 L8.7,11.1 L8.7,6.8 L1.4,6.8 Z" id="Shape"></path>
                <path d="M14.1,11.2 C14.6,10.9 15.1,10.5 15.7,10.1 C15.7,10.2 15.7,10.3 15.7,10.5 C15.7,10.7 15.7,10.8 15.7,10.9 C14.8,11.4 14.1,11.9 13.4,12.4 L13,11.9 C13.2,11.6 13.4,11.3 13.4,10.9 L13.4,5.6 L12,5.6 L12,5 L14,5 L14.1,11.2 Z M14.4,3.2 C13.8,2.6 13.2,2 12.5,1.3 L13,0.9 C13.8,1.6 14.5,2.2 14.9,2.7 L14.4,3.2 Z M15.5,1.8 L15.5,1.2 L23.7,1.2 L23.7,1.8 L18.9,1.8 L18.6,3.6 L22.8,3.6 L22.8,6.3 L24.3,6.3 L24.3,6.9 L15.2,6.9 L15.2,6.3 L17.4,6.3 L17.8,4.2 L15.9,4.2 L15.9,3.6 L18,3.6 L18.3,1.8 L15.5,1.8 Z M16.4,8.4 L23.1,8.4 L23.1,12.7 L22.4,12.7 L22.4,11.9 L17,11.9 L17,12.7 L16.3,12.7 L16.4,8.4 Z M17.1,9 L17.1,11.3 L22.5,11.3 L22.5,9 L17.1,9 Z M22.1,4.2 L18.5,4.2 L18.1,6.3 L22.1,6.3 L22.1,4.2 Z" id="Shape"></path>
                <path d="M32.4,3 L33,2.6 C33.1,2.8 33.3,3.1 33.6,3.5 C34.1,4.2 34.4,4.7 34.6,4.9 L34,5.3 C34,5.3 33.9,5.2 33.9,5.1 C33.8,5 33.7,4.7 33.5,4.4 C32.5,4.7 31.6,5.1 30.6,5.6 C30.3,5.7 30,5.9 29.8,6 L29.2,5.4 C29.4,5.2 29.6,4.8 29.6,4.4 L29.6,1.4 C31.1,1.3 32.5,1 33.8,0.7 L34.1,1.3 C32.8,1.6 31.5,1.8 30.3,1.9 L30.3,4.8 C30.9,4.6 31.8,4.2 33.1,3.7 C33.1,3.6 33,3.5 32.9,3.4 C32.6,3.3 32.5,3.1 32.4,3 Z M30.1,6.8 L39.5,6.8 L39.5,12.7 L38.8,12.7 L38.8,12.1 L30.7,12.1 L30.7,12.7 L30,12.7 L30,6.8 L30.1,6.8 Z M30.7,7.4 L30.7,9.2 L34.4,9.2 L34.4,7.4 C34.4,7.4 30.7,7.4 30.7,7.4 Z M30.7,9.8 L30.7,11.5 L34.4,11.5 L34.4,9.8 L30.7,9.8 Z M34.7,2 L34.7,1.4 L40.2,1.4 C40.2,1.8 40.2,2.5 40.1,3.5 C40.1,3.7 40.1,3.9 40.1,3.9 C40.1,5.2 39.5,5.8 38.3,5.7 C37.7,5.7 37.3,5.7 37.1,5.7 C37.1,5.5 37.1,5.3 37,5 C37.2,5 37.7,5 38.3,5 C39.1,5.1 39.5,4.7 39.5,3.8 C39.5,3.7 39.5,3.5 39.5,3.1 C39.5,2.5 39.5,2.1 39.5,1.8 L36.8,1.8 C36.9,3.8 36.1,5.3 34.6,6.2 C34.5,6 34.3,5.9 34.1,5.8 C35.6,4.9 36.3,3.6 36.2,1.9 C36.1,2 34.7,2 34.7,2 Z M38.8,7.4 L35.1,7.4 L35.1,9.2 L38.8,9.2 L38.8,7.4 Z M35.1,9.8 L35.1,11.5 L38.8,11.5 L38.8,9.8 L35.1,9.8 Z" id="Shape"></path>
                <path d="M47.7,7.8 L50.5,6.2 L44.2,6.2 L44.2,5.5 L51.4,5.5 L51.4,6.3 L48.5,8 L48.5,8.5 L54,8.5 L54,9.2 L48.5,9.2 L48.5,11.1 C48.5,12.1 48.1,12.6 47,12.6 C46.5,12.6 45.9,12.6 45.3,12.6 C45.3,12.5 45.3,12.5 45.3,12.3 C45.3,12.1 45.2,11.9 45.2,11.7 C45.7,11.7 46.2,11.7 46.8,11.7 C47.5,11.8 47.8,11.5 47.8,10.8 L47.8,9.1 L41.8,9.1 L41.8,8.4 L47.8,8.4 L47.7,7.8 Z M42.2,3.4 L53.6,3.4 L53.6,5.8 L52.9,5.8 L52.9,4 L42.9,4 L42.9,5.7 L42.2,5.7 L42.2,3.4 Z M43.2,1.2 L43.8,0.8 C44.4,1.5 44.9,2.1 45.3,2.6 L44.7,3 C44.3,2.6 43.8,2 43.2,1.2 Z M46.6,0.9 L47.2,0.6 C47.7,1.2 48.1,1.9 48.6,2.6 L47.9,3 C47.5,2.2 47.1,1.5 46.6,0.9 Z M50.7,3.2 L50.1,2.8 C50.7,2.2 51.3,1.5 51.8,0.8 L52.4,1.2 C52.2,1.4 52,1.7 51.6,2.1 C51.2,2.6 50.9,3 50.7,3.2 Z" id="Shape"></path>
                <path d="M58.3,5.1 L61.9,5.1 C62.3,4.4 62.7,3.7 63.1,3 L63.7,3.3 C63.4,3.9 63,4.5 62.6,5.1 L64.7,5.1 L64.7,5.7 L58.3,5.7 L58.3,5.1 Z M59.6,8.8 L60.2,9.1 C59.7,10.2 59.3,11 58.9,11.4 L58.3,11.2 C58.6,10.7 59,9.9 59.6,8.8 Z M61.2,6 L61.9,6 L61.9,7.3 L64.4,7.3 L64.4,8 L61.9,8 L61.9,11.3 C61.9,12.2 61.5,12.6 60.6,12.6 C60.3,12.6 59.9,12.6 59.5,12.6 C59.5,12.4 59.5,12.2 59.4,11.9 C59.7,11.9 60.1,11.9 60.4,11.9 C61,11.9 61.2,11.7 61.2,11.2 L61.2,8 L58.6,8 L58.6,7.4 L61.2,7.4 L61.2,6 Z M60.9,0.7 L61.6,0.5 C61.8,1 62,1.5 62.2,2 L64.4,2 L64.4,2.6 L58.7,2.6 L58.7,2 L61.5,2 C61.2,1.5 61,1.1 60.9,0.7 Z M59.3,3.3 L59.9,3 C60.2,3.5 60.6,4 60.9,4.6 L60.3,4.9 C60,4.3 59.7,3.7 59.3,3.3 Z M63.7,10.9 C63.4,10.3 63,9.7 62.4,9 L62.9,8.6 C63.2,8.9 63.5,9.4 63.9,10 C64,10.2 64.1,10.3 64.2,10.4 L63.7,10.9 Z M63.8,12.2 C65,11 65.5,9.1 65.4,6.5 L65.4,1.7 C66.8,1.6 68.3,1.5 70.1,1.3 L70.3,2 C69.1,2.2 67.7,2.3 66.1,2.4 L66.1,5.7 L70.7,5.7 L70.7,6.3 L69,6.3 L69,12.9 L68.3,12.9 L68.3,6.3 L66.2,6.3 L66.2,6.7 C66.3,9.4 65.7,11.5 64.5,12.8 C64.2,12.5 64,12.4 63.8,12.2 Z" id="Shape"></path>
                <path d="M71.5,4.3 L73.8,4.3 L73.8,2.2 C73.1,2.2 72.4,2.3 71.7,2.3 C71.7,2 71.6,1.8 71.5,1.6 C73.2,1.5 74.9,1.4 76.5,1.2 L76.6,1.9 C76.4,1.9 76,1.9 75.5,2 C75,2 74.6,2.1 74.4,2.1 L74.4,4.3 L76.8,4.3 L76.8,5 L74.4,5 L74.4,6.7 L74.8,6.4 C75.7,7.1 76.3,7.7 76.7,8.1 L76.2,8.6 C75.6,8 75,7.4 74.5,6.9 L74.5,12.6 L73.8,12.6 L73.8,6.2 C73.2,7.8 72.5,9.1 71.7,10.2 C71.6,9.9 71.5,9.7 71.3,9.4 C72.3,8.3 73.1,6.8 73.8,4.9 L71.5,4.9 L71.5,4.3 Z M83,12.5 C82.9,12.1 82.7,11.7 82.6,11.2 C80.8,11.3 79.2,11.4 77.9,11.5 C77.6,11.5 77.3,11.5 77,11.6 L76.6,11 C76.9,10.7 77.2,10.2 77.4,9.6 C78.4,7 79.3,4 80,0.7 L80.9,0.8 C79.9,4.8 78.8,8.1 77.7,10.8 C78,10.8 78.4,10.7 78.9,10.7 C79.4,10.7 80.5,10.6 82.3,10.4 C81.9,9.2 81.3,7.6 80.6,5.7 L81.3,5.4 C82.3,8.1 83.2,10.3 83.8,12 L83,12.5 Z" id="Shape"></path>
                <path d="M87.5,6.3 L89.2,5.7 L84.9,5.7 L84.9,5.2 L90.2,5.2 L90.2,5.8 L88.1,6.7 L88.1,6.9 C89,6.8 89.8,6.8 90.6,6.8 C90.6,7 90.6,7.2 90.6,7.4 C90.3,7.4 89.9,7.4 89.4,7.4 C88.8,7.4 88.4,7.4 88.2,7.4 L88.2,8 C88.2,8.6 87.8,9 87,9.1 C86.6,9.1 86.2,9.1 85.8,9.1 C85.8,9 85.8,8.9 85.8,8.8 C85.8,8.7 85.7,8.6 85.7,8.5 C86.1,8.5 86.5,8.5 86.9,8.5 C87.4,8.5 87.6,8.3 87.6,7.9 L87.6,7.5 C87.3,7.5 86.8,7.6 86.1,7.6 C85.4,7.7 84.9,7.7 84.6,7.7 L84.5,7.1 C84.6,7.1 84.7,7.1 84.9,7.1 C85.6,7.1 86.5,7 87.6,6.9 L87.5,6.3 Z M90.2,9.1 L90.9,9.1 L90.9,9.9 L95.5,9.9 L95.5,10.5 L90.9,10.5 L90.9,11.6 L96.6,11.6 L96.6,12.2 L84.4,12.2 L84.4,11.6 L90.1,11.6 L90.1,10.5 L85.5,10.5 L85.5,9.9 L90.1,9.9 L90.1,9.1 L90.2,9.1 Z M87.2,0.7 L87.8,0.6 C87.9,0.7 87.9,0.9 88,1 C88.1,1.2 88.2,1.4 88.2,1.4 L90.8,1.4 L90.8,2 L84.6,2 L84.6,1.4 L87.5,1.4 C87.5,1.3 87.4,1.2 87.4,1.1 C87.3,0.9 87.2,0.8 87.2,0.7 Z M85.3,2.7 L90.2,2.7 L90.2,4.4 L85.3,4.4 L85.3,2.7 Z M85.9,3.2 L85.9,4 L89.6,4 L89.6,3.2 L85.9,3.2 Z M90.9,2.4 L92.3,2.4 C92.3,2.1 92.3,1.5 92.3,0.6 L92.9,0.6 C92.9,1.1 92.9,1.7 92.9,2.4 L95,2.4 C95,5.5 95.1,7.2 95.4,7.7 C95.5,8 95.7,8.1 95.8,8.1 C96,8.1 96.1,7.9 96.1,7.5 C96.2,7.3 96.2,7 96.2,6.6 C96.2,6.5 96.2,6.3 96.2,6.2 C96.4,6.3 96.6,6.4 96.8,6.4 C96.8,6.9 96.7,7.4 96.6,7.8 C96.5,8.4 96.2,8.7 95.8,8.7 C95.4,8.7 95.1,8.4 94.8,7.9 C94.5,7.3 94.4,5.6 94.4,2.9 L92.9,2.9 C92.9,3.9 92.8,4.7 92.6,5.4 C92.7,5.5 92.9,5.7 93.2,5.9 C93.5,6.2 93.8,6.4 94,6.5 L93.6,7 C93.5,6.9 93.3,6.7 93.1,6.6 C92.9,6.4 92.7,6.2 92.5,6.1 C92.2,6.9 91.6,7.8 90.7,8.7 C90.7,8.7 90.6,8.6 90.6,8.6 C90.4,8.4 90.3,8.3 90.2,8.2 C91.2,7.3 91.8,6.4 92,5.6 C91.9,5.5 91.7,5.3 91.4,5.1 C91.1,4.9 90.9,4.7 90.8,4.7 L91.2,4.3 C91.5,4.6 91.9,4.9 92.2,5.1 C92.4,4.5 92.5,3.8 92.5,3 L91,3 L90.9,2.4 Z" id="Shape"></path>
            </g>
            <path d="M25.8,4.8 L21.9,0.4 L18.4,4.8 C14.2,5.4 10.3,7.3 7.1,10.6 C-1.2,18.8 -1.1,32 7.1,40.3 C15.4,48.6 28.7,48.6 36.8,40.5 C44.9,32.4 45,19 36.7,10.7 C34.2,8.2 29.1,5.8 25.8,4.8 Z M17.8,29.5 C14,27.1 12.7,22 15,18.2 C17.3,14.4 22.5,13.1 26.3,15.4 C30.1,17.7 31.4,22.9 29.1,26.7 C26.6,30.8 21.8,31.9 17.8,29.5 Z" id="Shape" fill="#F9D10B"></path>
        </g>
    </g>
</svg>