<?xml version="1.0" encoding="utf-8"?>
<!-- Generator: Adobe Illustrator 16.0.0, SVG Export Plug-In . SVG Version: 6.00 Build 0)  -->
<!DOCTYPE svg PUBLIC "-//W3C//DTD SVG 1.1//EN" "http://www.w3.org/Graphics/SVG/1.1/DTD/svg11.dtd">
<svg version="1.1" id="图层_1" xmlns="http://www.w3.org/2000/svg" xmlns:xlink="http://www.w3.org/1999/xlink" x="0px" y="0px"
	 width="1920px" height="1000px" viewBox="0 0 1920 1000" enable-background="new 0 0 1920 1000" xml:space="preserve">
<g id="Page-1">
	<g id="Artboard-Copy-11" transform="translate(-195.000000, -11.000000)">
		<g id="n-logo" transform="translate(195.000000, 11.000000)">
			<g id="Group" transform="translate(37.117241, 3.234043)">
				<path id="Shape" fill="#040000" stroke="#040000" stroke-width="0.5" d="M387.368,392.452l-29.76,86.399l-13.44-4.8l29.759-86.4
					L387.368,392.452z M435.368,346.372v170.881h-42.24v-14.4h28.801V346.373L435.368,346.372L435.368,346.372z M482.408,387.653
					l29.76,86.4l-13.439,4.8l-29.76-86.399L482.408,387.653z"/>
				<path id="Shape_1_" fill="#040000" stroke="#040000" stroke-width="0.5" d="M707.049,370.372h-38.399v10.561h-13.44v-10.561
					h-67.2v10.561H573.61v-10.561h-38.4v-13.439h38.4v-10.561h14.398v10.561h67.2v-10.561h14.4v10.561h38.398v13.439H707.049z
					 M540.969,417.412v-30.721h162.239v30.721h-14.399v-16.319h-66.239v12.479h57.6v36.48h-14.399v-23.04H580.33v31.68h113.28
					v58.562h-44.16v-14.4h29.76v-30.72H567.85v-60.48h41.278v-12.479h-53.76v16.318h-14.399V417.412z M663.85,498.053H541.928v-14.4
					H663.85V498.053z M624.488,453.893l-14.4-14.399l9.602-10.561l14.398,14.399L624.488,453.893z"/>
				<polygon id="Shape_2_" fill="#040000" stroke="#040000" stroke-width="0.5" points="895.208,441.412 895.208,516.293 
					735.85,516.293 735.85,441.412 749.288,441.412 749.288,502.853 807.85,502.853 807.85,426.053 735.85,426.053 735.85,360.773 
					749.288,360.773 749.288,411.653 807.85,411.653 807.85,346.372 822.248,346.372 822.248,411.653 880.809,411.653 
					880.809,360.773 895.208,360.773 895.208,426.053 822.248,426.053 822.248,503.813 880.809,503.813 880.809,442.372 
					895.208,442.372 				"/>
				<path id="Shape_3_" fill="#040000" stroke="#040000" stroke-width="0.5" d="M1088.168,353.093v164.16H928.809v-164.16H1088.168z
					 M943.208,366.533v137.28h131.521v-137.28H943.208z M1062.248,486.533H953.768v-14.398h47.041v-34.562h-40.32v-14.398h40.32
					v-25.92h-45.12v-14.4h102.72v14.4h-44.16v25.92h40.32v14.398h-40.32v34.562h47.04v14.398H1062.248z M1044.008,467.332
					l-14.398-14.399l9.6-10.561l14.4,14.399L1044.008,467.332z"/>
			</g>
			<g id="Group_1_" transform="translate(38.731034, 25.063830)">
				<path id="Shape_4_" fill="#040000" d="M357.087,539.869h68.161v87.36h-5.761v-8.641h-56.64v7.681h-5.76V539.869z
					 M361.887,545.63v31.681h56.64V545.63H361.887z M361.887,582.109v33.6h56.64v-33.6H361.887z"/>
				<path id="Shape_5_" fill="#040000" d="M460.767,615.709c3.84-1.92,7.68-5.76,12.479-8.64c0,0.96,0,1.92,0,2.88s0,1.92,0,2.88
					c-6.72,3.84-12.479,7.682-18.238,11.521l-2.881-3.84c1.92-1.922,2.881-4.802,2.881-7.682V572.51h-10.562v-4.802h15.36
					L460.767,615.709z M462.687,554.269c-4.8-4.8-9.6-9.602-14.4-14.4l3.841-2.88c5.761,5.76,11.521,10.561,14.399,14.4
					L462.687,554.269z M471.327,542.749v-4.8h63.36v4.8h-37.439l-1.921,14.4h32.642v21.12h11.52v4.8h-70.08v-4.8h17.28l2.88-16.32
					h-14.399v-4.8h16.319l1.92-14.4H471.327z M478.046,594.589h51.841v33.602h-4.8v-5.76h-42.24v5.76h-5.76L478.046,594.589z
					 M483.807,598.429v18.238h41.28v-18.238H483.807z M522.206,561.949h-27.841l-2.88,16.32h30.721V561.949z"/>
				<path id="Shape_6_" fill="#040000" d="M601.887,552.349l4.8-2.88c0.96,1.92,1.92,3.84,4.8,6.72
					c3.841,5.76,5.761,9.6,7.681,10.56l-4.801,2.88c0,0-0.96-0.96-0.96-1.92c-0.96-0.96-1.92-2.88-2.88-5.76
					c-7.68,1.92-14.4,5.76-22.08,9.602c-1.92,0.96-4.8,1.92-5.76,2.88l-4.8-4.802c1.92-1.92,2.88-4.8,2.88-7.68v-22.08
					c11.52-0.96,22.08-2.88,32.64-5.76l1.92,4.8c-9.6,1.92-20.159,3.84-29.76,4.8v22.08c4.8-1.92,11.521-4.8,22.08-8.64
					c0-0.96-0.96-1.92-1.92-1.92C603.807,554.269,602.847,553.309,601.887,552.349z M584.607,582.109h72.96v46.08h-5.76v-4.8h-62.4
					v4.8h-5.76L584.607,582.109L584.607,582.109z M589.407,585.949v14.4h28.8v-14.4H589.407z M589.407,605.149v13.439h28.8v-13.439
					H589.407z M620.126,544.669v-4.8h42.239c0,2.88,0,8.642-0.96,16.32c0,1.92,0,2.88,0,2.88c0,10.561-4.8,14.4-14.398,14.4
					c-4.801,0-7.682,0-9.602,0c0-1.92,0-2.881-0.96-5.762c1.92,0,5.761,0,9.601,0c5.761,0.961,9.601-1.92,9.601-9.6
					c0-0.96,0-1.92,0-5.76c0-4.8,0-7.682,0-10.562h-21.12c0.96,15.36-5.76,26.88-17.28,34.562c-0.96-1.92-1.92-1.92-3.84-2.88
					c11.521-6.722,17.28-17.28,16.32-30.722C630.687,544.669,620.126,544.669,620.126,544.669z M651.807,585.949h-28.8v14.4h28.8
					V585.949z M623.007,605.149v13.439h28.8v-13.439H623.007z"/>
				<path id="Shape_7_" fill="#040000" d="M720.927,589.789l22.08-12.479h-48.96v-5.76h55.68v5.76l-23.04,13.438v3.841h42.24v5.761
					h-42.24v14.398c0,7.682-2.88,11.521-11.521,11.521c-3.84,0-8.64,0-13.438,0c0-0.96,0-0.96,0-1.92s-0.96-2.88-0.96-4.8
					c3.84,0,7.68,0,12.479,0c5.762,0.96,7.682-1.921,7.682-6.722V599.39h-46.08v-4.802h46.08V589.789z M677.727,555.229h88.32v18.24
					h-5.761v-13.44h-77.761v13.44h-5.76v-18.24H677.727z M685.407,537.949l4.8-2.88c4.802,5.76,8.642,10.56,11.521,14.4l-3.84,2.88
					C694.046,549.469,690.206,544.669,685.407,537.949z M712.287,536.029l4.802-1.92c3.84,4.8,6.72,10.56,10.56,15.36l-5.76,2.88
					C719.007,545.63,716.126,540.829,712.287,536.029z M743.967,554.269l-4.802-2.88c4.802-4.802,9.602-10.562,13.44-15.36l4.8,2.88
					c-1.92,1.92-2.88,3.84-5.76,6.72C747.807,549.469,745.887,552.349,743.967,554.269z"/>
				<path id="Shape_8_" fill="#040000" d="M802.527,568.669h27.84c2.881-5.76,5.761-10.56,9.602-16.318l4.8,1.92
					c-1.92,4.8-5.76,9.6-8.641,14.398h16.319v4.802h-49.92V568.669z M813.087,597.469l4.8,1.92
					c-3.841,8.64-6.722,14.398-9.602,18.238l-4.8-1.92C805.407,611.869,808.287,606.109,813.087,597.469z M825.567,575.389h5.761
					v10.56h19.199v4.8h-19.199v25.92c0,6.722-2.881,10.562-9.601,10.562c-1.92,0-5.76,0-8.64,0c0-1.92,0-2.88-0.961-5.76
					c1.92,0,5.761,0,7.681,0c4.8,0,5.76-1.921,5.76-5.762v-24.96h-20.159v-4.8h20.159V575.389z M822.687,534.109l5.76-0.96
					c1.92,3.84,2.881,7.68,4.801,11.52h17.279v4.802h-44.16v-4.802h22.08C825.567,540.829,823.647,537.949,822.687,534.109z
					 M810.206,554.269l4.801-1.92c1.92,3.84,5.76,7.68,7.68,12.479l-4.8,1.92C815.967,561.949,814.046,558.109,810.206,554.269z
					 M844.767,613.789c-1.92-4.8-5.76-9.6-9.602-14.398l3.842-2.88c1.92,1.92,4.8,5.76,7.68,10.56c0.96,1.92,1.92,1.92,1.92,2.88
					L844.767,613.789z M845.727,623.389c9.6-9.602,13.44-24,12.479-44.16v-37.44c10.561-0.96,22.08-1.92,36.479-2.88l1.92,5.76
					c-9.6,1.92-20.16,1.92-32.64,2.882v25.92h35.52v4.8h-13.439v50.88h-5.761v-50.88h-16.318v2.88
					c0.96,21.12-3.841,37.438-13.44,47.04C848.607,626.269,846.687,625.309,845.727,623.389z"/>
				<path id="Shape_9_" fill="#040000" d="M905.247,561.949h18.239v-16.32c-5.76,0-10.56,0.96-16.319,0.96
					c0-1.92-0.961-3.84-1.92-5.76c13.439-0.96,25.92-1.92,38.399-2.88l0.96,5.76c-1.92,0-4.8,0-8.64,0.96
					c-3.841,0-6.722,0.961-8.642,0.961v16.319h18.24v5.76h-18.24v13.44l2.881-1.92c6.721,5.76,11.521,10.56,14.399,13.439
					l-3.84,3.841c-4.801-4.802-9.601-9.602-13.44-13.44v44.16h-5.76v-49.92c-4.8,12.479-9.601,22.08-16.32,30.72
					c-0.959-1.92-1.92-3.84-2.88-5.76c7.681-8.642,14.4-20.16,19.2-34.562h-18.24v-5.76L905.247,561.949L905.247,561.949z
					 M994.527,626.269c-0.96-2.88-1.92-5.76-2.88-10.562c-14.399,0.96-25.92,1.92-36.479,1.92c-1.92,0-4.801,0-6.721,0.961
					l-2.88-4.801c1.92-1.92,4.8-5.76,5.761-10.56c7.681-20.16,14.399-43.2,20.159-69.12l6.72,0.96
					c-7.68,30.72-16.318,56.64-24.959,77.76c1.92,0,5.761-0.96,9.601-0.96s12.479-0.96,25.92-1.92
					c-2.88-9.6-7.68-22.08-13.44-36.479l5.762-1.92c7.68,21.119,14.398,38.398,19.198,50.88L994.527,626.269z"/>
				<path id="Shape_10_" fill="#040000" d="M1029.087,578.269l13.438-4.8h-33.6v-3.842h41.278v4.802l-16.318,6.72v1.92
					c6.72-0.96,13.439-0.96,19.2-0.96c0,1.92,0,2.88,0,4.8c-1.921,0-5.761,0-9.602,0c-4.8,0-7.68,0-9.6,0v3.84
					c0,4.802-2.88,7.682-9.601,8.642c-2.881,0-5.761,0-9.601,0c0-0.96,0-1.92,0-1.92s0-1.92,0-2.882c2.88,0,5.761,0,9.601,0
					c3.84,0,5.76-1.92,5.76-4.8v-2.88c-1.92,0-5.76,0.96-11.519,0.96c-5.76,0.96-9.6,0.96-11.52,0.96l-0.96-4.8
					c0.96,0,1.92,0,2.88,0c5.76,0,12.479-0.96,21.12-1.92L1029.087,578.269z M1050.206,599.389h5.761v5.76h35.52v4.8h-35.52v8.64
					h44.159v4.802h-95.039v-4.802h44.158v-7.68h-35.518v-4.8h35.518L1050.206,599.389L1050.206,599.389z M1026.206,534.109
					l4.801-0.96c0.96,0.96,0.96,1.92,1.92,2.88c0.96,1.92,1.92,2.88,1.92,2.88h20.16v4.8h-48v-3.84h22.08
					c0-0.96-0.961-1.92-0.961-1.92C1027.167,536.029,1026.206,535.069,1026.206,534.109z M1011.807,549.469h38.399v13.438h-38.399
					V549.469z M1016.607,554.269v5.76h28.8v-5.76H1016.607z M1055.007,547.549h10.56c0-1.922,0-6.722,0-14.4h4.8
					c0,3.84,0,8.64,0,14.4h16.32c0,24,0.96,37.438,2.88,41.278c0.96,1.92,1.92,2.88,2.88,2.88c1.92,0,1.92-1.92,1.92-4.8
					c0.961-1.92,0.961-3.84,0.961-6.72c0-0.96,0-1.92,0-2.88c1.92,0.96,2.879,1.92,4.8,1.92c0,3.84-0.96,7.68-1.921,10.56
					c-0.959,4.801-2.879,6.722-5.76,6.722c-2.88,0-4.8-1.921-6.72-5.762c-1.92-4.8-2.88-18.238-2.88-38.398h-11.521
					c0,7.68-0.959,14.398-1.92,19.2c0.96,0.96,1.92,1.92,4.801,3.84c1.92,1.92,4.801,3.84,5.761,4.8l-2.88,3.84
					c-1.92-1.92-2.881-2.88-4.801-3.84c-1.921-1.92-2.881-2.88-4.801-3.84c-1.92,5.76-6.72,13.438-14.398,20.16v-0.96
					c-1.92-1.922-1.92-1.922-2.881-2.882c7.681-6.72,12.479-14.398,14.399-20.158c-1.92-0.96-2.88-1.921-5.76-3.842
					c-1.92-1.92-3.84-2.88-4.802-2.88l3.842-3.84c1.92,1.92,5.76,4.8,7.68,5.76c1.92-4.8,1.92-10.56,1.92-16.318h-11.52
					L1055.007,547.549z"/>
			</g>
			<path id="Shape_11_" fill="#EFCA23" d="M217.92,350.24l-29.76-34.562l-26.88,34.562c-32.64,4.8-62.4,19.2-87.36,45.12
				c-64.32,63.358-63.36,166.08,0,230.398c64.32,64.32,167.04,64.32,230.4,1.92c63.36-62.398,63.36-167.04-0.96-231.358
				C283.2,377.12,243.84,358.88,217.92,350.24z M156.48,542.24c-29.76-18.24-39.36-58.562-22.08-87.36
				c17.28-28.799,58.56-39.36,87.36-22.08c28.8,17.28,39.36,58.562,22.08,87.36C224.64,552.8,187.2,561.44,156.48,542.24z"/>
		</g>
	</g>
</g>
<line fill="none" stroke="#000000" stroke-width="0.75" stroke-miterlimit="10" x1="1267.2" y1="424.16" x2="1267.2" y2="589.28"/>
<g enable-background="new    ">
	<path fill="#E60012" d="M1357.766,427.962h127.168v163.286h-9.782v-13.544h-106.851v13.544h-10.535V427.962z M1368.301,437.744
		v60.197h106.851v-60.197H1368.301z M1368.301,506.972v62.455h106.851v-62.455H1368.301z"/>
	<path fill="#E60012" d="M1533.092,561.149c-1.505-1.999-4.021-4.762-7.524-8.277c33.603-24.079,58.435-55.683,74.495-94.812
		h-68.476v-9.029h77.505V415.17h10.535v33.861h77.504v9.029h-68.475c16.049,38.129,41.127,68.476,75.247,91.049
		c-4.515,4.516-7.03,7.525-7.524,9.03c-36.119-25.079-61.456-58.435-76-100.079h-0.752v89.544h42.138v9.03h-42.138v36.118h-10.535
		v-36.118h-43.644v-9.03h43.644v-89.544h-0.752C1593.783,501.21,1568.705,535.565,1533.092,561.149z"/>
</g>
</svg>
