<?xml version="1.0" encoding="utf-8"?>
<!-- Generator: Adobe Illustrator 21.1.0, SVG Export Plug-In . SVG Version: 6.00 Build 0)  -->
<svg version="1.1" id="图层_1" xmlns="http://www.w3.org/2000/svg" xmlns:xlink="http://www.w3.org/1999/xlink" x="0px" y="0px"
	 viewBox="0 0 1920 1000" style="enable-background:new 0 0 1920 1000;" xml:space="preserve">
<style type="text/css">
	.st0{
	fill:#ffd900;
	}
	.st1{fill:#040000;}
	.st2{fill:#070001;}
	.st3{fill:none;stroke:#070001;stroke-width:0.5;}
</style>
<path class="st0" d="M350.6,255l-49.5-57.5L256.4,255C202,263,152.5,286.9,111,330C4,435.5,5.6,606.4,111,713.4
	c107,107,277.9,107,383.4,3.2c105.4-103.8,105.4-278-1.6-385C459.2,298.1,393.7,267.7,350.6,255 M248.4,574.4
	c-49.5-30.4-65.5-97.4-36.7-145.4c28.8-47.9,97.4-65.5,145.4-36.7c47.9,28.8,65.5,97.5,36.7,145.4
	C361.8,590.4,299.5,604.8,248.4,574.4"/>
<path class="st1" d="M682.1,705.4v-9.1c3.5-5.6,6.9-13.2,10.4-22.8h-41v-8.5h44.9c1.3-3.5,3.5-9.1,6.5-16.9c1.3-3.9,2.4-6.7,3.3-8.5
	h-44.9v-8.4h48.1c2.6-5.6,5.2-13.2,7.8-22.8l9.1,2c-2.2,6.5-4.6,13.5-7.2,20.8h78.1v8.4H716c-0.9,1.8-2,4.6-3.3,8.5
	c-3,7.8-5.2,13.4-6.5,16.9h101.5v8.5H702.3c-3.5,9.1-6.9,16.9-10.4,23.4h96.3v9.8l-44.2,39c3,0.9,7.4,2.8,13,5.9
	c5.6,2.6,9.8,4.6,12.4,5.8l-5.2,7.8c-29.5-14.3-57.2-27.3-83.3-39l4.6-7.1c1.3,0.4,3.5,1.3,6.5,2.6c18.2,8.2,32.7,15.2,43.6,20.8
	l41-37.1H682.1z"/>
<path class="st1" d="M911.8,611.8h8.5v134h54v8.5H816.8v-8.5h53.3v-134h8.5v134h33.2L911.8,611.8L911.8,611.8z M848.7,710.6
	c-7.4-21.2-15.4-42.3-24.1-63.1l8.5-3.3c3.9,10,10.2,26,18.9,48.1c2.6,7.4,4.5,12.6,5.8,15.6L848.7,710.6z M939.7,711.3l-8.4-3.9
	c6.9-13,16-34,27.3-63.1l8.5,3.3C958.8,668.8,949.7,690.1,939.7,711.3"/>
<path class="st1" d="M1093.9,756.2c-10-10.8-19.1-20.4-27.3-28.6c-3.9,11.3-14.3,23.4-31.2,36.4c-1.8-2.2-3.9-4.6-6.5-7.2
	c13.9-8.7,23-17.6,27.3-26.7c4.8-9.1,7.2-23.2,7.2-42.3v-45.5h8.4v46.2c0,15.6-1.5,28-4.5,37.1l4.5-4.6c2.2,2.2,5.4,5.6,9.8,10.4
	c8.2,8.2,15,14.5,20.2,18.9L1093.9,756.2z M1038,617.6h59.2v98.2h-8.5v-90.4h-42.3v91.1h-8.5L1038,617.6L1038,617.6z M1136.9,608.5
	h8.5V643h41.6v8.5h-41.6v40.3h33.2v72.9h-8.5v-9.8h-50.1v9.8h-9.1v-72.9h26L1136.9,608.5L1136.9,608.5z M1119.9,746.4h50.1v-46.8
	h-50.1V746.4z"/>
<path class="st1" d="M1213.6,658.6l9.1,2.6c-5.6,21.7-11.3,42.9-16.9,63.8c-3-1.3-6.3-2.4-9.8-3.2
	C1201.7,706.1,1207.5,685.1,1213.6,658.6 M1237.7,640.4h9.7v94.3c-0.4,10.9,5,16,16.2,15.6h31.9c11.3,0.4,17.8-4.1,19.5-13.7
	c1.3-5.6,2.4-13,3.2-22.1c1.3,0.4,3,0.9,5.2,1.3c2.2,0.9,3.7,1.5,4.6,2c-0.4,4.8-1.3,10.6-2.6,17.6c-0.4,3-0.9,5.2-1.3,6.5
	c-2.6,11.7-11.7,17.6-27.3,17.6h-35.8c-15.6,0-23.4-7.6-23.4-22.8L1237.7,640.4L1237.7,640.4z M1289.1,658
	c-6.1-11.3-15-26.2-26.7-44.9l8.4-4.6c1.3,2.2,3.3,5.2,5.8,9.1c6.1,9.1,13.2,20.8,21.5,35.1L1289.1,658z M1344.4,715.2
	c-8.7-19.9-17.6-39-26.7-57.2l9.1-3.9c1.7,3.9,4.8,10,9.1,18.2c8.2,16.9,14.3,29.7,18.2,38.4L1344.4,715.2z"/>
<path class="st1" d="M1408.8,666.4h46.2c5.2-9.1,10.2-18,15-26.7l7.8,3.9c-4.3,7.8-8.9,15.4-13.7,22.8h26v7.2h-81.3L1408.8,666.4
	L1408.8,666.4z M1425.7,713.9l7.2,3.3c-6.5,14.3-11.9,24.3-16.3,29.9l-7.2-2.6C1412.9,738.9,1418.3,728.7,1425.7,713.9
	 M1445.9,678.8h8.5v16.9h31.2v7.8h-31.2v41.6c0.4,10.8-5,16.5-16.3,16.9h-14.3c0-2.6-0.4-5.4-1.3-8.4h13c6.9,0,10.4-3.1,10.4-9.1
	v-41h-33.2v-7.8h33.2L1445.9,678.8L1445.9,678.8L1445.9,678.8z M1441.3,611.1l8.5-2.6c2.6,6.1,5.2,12.6,7.8,19.5h28v7.8h-72.2V628
	h35.1C1445.9,621.1,1443.5,615.5,1441.3,611.1 M1421.8,643.6l7.2-3.9c4.3,6.1,8.7,13,13,20.8l-7.2,3.9
	C1430.4,656.7,1426.1,649.7,1421.8,643.6 M1477.7,741.2c-3.9-6.9-9.3-15-16.3-24.1l6.5-4.6c3.5,3.9,7.8,10,13,18.2
	c1.7,2.2,3,3.9,3.9,5.2L1477.7,741.2z M1478.4,757.5c14.7-14.7,21.7-39,20.8-72.9v-61.8c17.8-0.9,37.7-2.8,59.9-5.9l2.6,8.5
	c-15.6,2.2-33.6,3.9-54,5.2v41.6h58.6v7.8h-22.1v84.6h-9.1v-84.6h-27.3v5.2c0.9,34.7-6.3,60.7-21.5,78.1
	C1483.6,761.6,1481,759.7,1478.4,757.5"/>
<path class="st1" d="M1623.5,639.7l7.1-4.5c1.7,2.6,4.3,6.5,7.8,11.7c6.1,8.7,10.2,14.8,12.4,18.2l-7.8,4.6
	c-0.4-0.4-1.1-1.3-1.9-2.6c-0.9-1.7-2.4-4.6-4.6-8.5c-12.6,4.3-24.7,9.3-36.4,15c-3.5,1.3-6.9,3.2-10.4,5.8l-7.2-7.1
	c3-3,4.6-7.2,4.6-12.4v-38.4c19.1-1.7,37.1-4.6,54-8.5l3.2,7.8c-16.5,3.5-32.8,6.1-48.8,7.8v37.1c6.9-2.2,18.9-6.9,35.8-14.3
	c-0.4-0.9-1.3-2.2-2.6-3.9C1626.5,643.6,1624.8,641,1623.5,639.7 M1594.2,688.5h119.7V764h-8.5v-7.2h-102.8v7.8h-8.5L1594.2,688.5
	L1594.2,688.5z M1602.6,719.8h46.8v-23.4h-46.8V719.8z M1602.6,749h46.8v-22.1h-46.8V749z M1652.7,627.4v-7.8h70.3
	c0,5.2-0.4,14.3-1.3,27.3v5.9c-0.4,16-8.2,23.8-23.4,23.4h-15.6c0-3-0.7-5.8-2-8.4c3,0.4,8.7,0.6,16.9,0.6
	c10,0.9,15.1-4.3,15.6-15.6v-9.1c0.4-7.4,0.7-12.8,0.7-16.3h-34.5c0.8,25.6-8.7,44.2-28.6,55.9c-1.7-2.2-3.9-4.1-6.5-5.9
	c19.1-10.8,28-27.5,26.7-50.1L1652.7,627.4L1652.7,627.4z M1705.4,696.3h-46.8v23.4h46.8V696.3z M1658.6,749h46.8v-22.1h-46.8V749z"
	/>
<path class="st1" d="M1819.3,702.2l35.1-20.2h-80.7v-8.5h91.7V684l-37.1,22.1v6.5h70.3v8.5h-70.3v24.1c0.4,12.6-5.9,18.9-18.9,18.9
	H1788c0-0.9-0.2-2-0.7-3.3c-0.4-3-0.9-5.4-1.3-7.1c6.5,0.4,13.4,0.6,20.8,0.6c9.1,0.9,13.2-2.8,12.4-11.1V721h-76.8v-8.5h76.8V702.2
	z M1748.3,644.9h145.1v30.6h-9.1v-22.1h-126.9v22.1h-9.1V644.9z M1761.4,617.6l7.1-4.6c7.8,8.7,14.1,16.3,18.9,22.8l-7.8,5.9
	C1775.2,635.2,1769.2,627.2,1761.4,617.6 M1805.6,613.1l7.8-3.9c6.1,7.8,11.9,16.3,17.6,25.4l-8.5,4.6
	C1816.9,629.6,1811.2,620.9,1805.6,613.1 M1857,643l-7.8-5.9c8.2-8.2,15.6-16.7,22.1-25.4l7.8,5.9c-2.2,2.6-5.6,6.5-10.4,11.7
	C1863.5,635.4,1859.6,640,1857,643"/>
<path class="st2" d="M694.3,329l-49.5,143.8l-22.4-8L672,321L694.3,329z M774.2,253.9v284.3h-70.3v-24h47.9V253.9H774.2z
	 M852.5,322.6L902,466.4l-22.4,8l-49.5-143.8L852.5,322.6z"/>
<path class="st3" d="M694.3,329l-49.5,143.8l-22.4-8L672,321L694.3,329z M774.2,253.9v284.3h-70.3v-24h47.9V253.9H774.2z
	 M852.5,322.6L902,466.4l-22.4,8l-49.5-143.8L852.5,322.6z"/>
<path class="st2" d="M1226.3,293.9h-63.9v17.6h-24v-17.6h-110.2v17.6h-24v-17.6h-63.9v-24h63.9v-16h24v17.6h110.2v-17.6h24v17.6
	h63.9L1226.3,293.9L1226.3,293.9z M949.9,370.5V321h270v51.1h-24v-28.8h-110.2v20.8h95.8v60.7h-24v-38.3h-142.1v52.7h188.5v97.4
	h-73.5v-24h49.5v-51.1H994.6v-99h68.7v-20.8h-89.5v27.2h-24L949.9,370.5L949.9,370.5L949.9,370.5z M1156,504.7H951.5v-24h202.9v24
	H1156z M1088.9,431.2l-24-24l16-17.6l24,24L1088.9,431.2z"/>
<path class="st3" d="M1226.3,293.9h-63.9v17.6h-24v-17.6h-110.2v17.6h-24v-17.6h-63.9v-24h63.9v-16h24v17.6h110.2v-17.6h24v17.6
	h63.9L1226.3,293.9L1226.3,293.9z M949.9,370.5V321h270v51.1h-24v-28.8h-110.2v20.8h95.8v60.7h-24v-38.3h-142.1v52.7h188.5v97.4
	h-73.5v-24h49.5v-51.1H994.6v-99h68.7v-20.8h-89.5v27.2h-24L949.9,370.5L949.9,370.5L949.9,370.5z M1156,504.7H951.5v-24h202.9v24
	H1156z M1088.9,431.2l-24-24l16-17.6l24,24L1088.9,431.2z"/>
<polygon class="st2" points="1539.4,410.5 1539.4,536.7 1274.2,536.7 1274.2,410.5 1296.5,410.5 1296.5,512.7 1395.6,512.7 
	1395.6,384.9 1274.2,384.9 1274.2,276.3 1296.5,276.3 1296.5,362.5 1395.6,362.5 1395.6,253.9 1418,253.9 1418,362.5 1515.4,362.5 
	1515.4,276.3 1539.4,276.3 1539.4,384.9 1418,384.9 1418,514.3 1515.4,514.3 1515.4,412.1 1539.4,412.1 "/>
<polygon class="st3" points="1539.4,410.5 1539.4,536.7 1274.2,536.7 1274.2,410.5 1296.5,410.5 1296.5,512.7 1395.6,512.7 
	1395.6,384.9 1274.2,384.9 1274.2,276.3 1296.5,276.3 1296.5,362.5 1395.6,362.5 1395.6,253.9 1418,253.9 1418,362.5 1515.4,362.5 
	1515.4,276.3 1539.4,276.3 1539.4,384.9 1418,384.9 1418,514.3 1515.4,514.3 1515.4,412.1 1539.4,412.1 "/>
<path class="st2" d="M1860.4,536.7h-265.2V263.5h265.2V536.7z M1619.2,514.3h218.8V285.8h-218.8V514.3z M1817.3,485.5h-180.5v-24
	h78.3v-57.5h-65.5v-22.4h67.1V337h-75.1v-22.3h170.9v24H1739v43.1h67.1v22.4H1739v57.5h78.3L1817.3,485.5L1817.3,485.5z M1787,455.2
	l-24-24l16-17.6l24,24L1787,455.2z"/>
<path class="st3" d="M1860.4,536.7h-265.2V263.5h265.2V536.7z M1619.2,514.3h218.8V285.8h-218.8V514.3z M1817.3,485.5h-180.5v-24
	h78.3v-57.5h-65.5v-22.4h67.1V337h-75.1v-22.3h170.9v24H1739v43.1h67.1v22.4H1739v57.5h78.3L1817.3,485.5L1817.3,485.5z M1787,455.2
	l-24-24l16-17.6l24,24L1787,455.2z"/>
</svg>
