<?xml version="1.0" encoding="utf-8"?>
<!-- Generator: Adobe Illustrator 21.1.0, SVG Export Plug-In . SVG Version: 6.00 Build 0)  -->
<svg version="1.1" id="图层_1" xmlns="http://www.w3.org/2000/svg" xmlns:xlink="http://www.w3.org/1999/xlink" x="0px" y="0px"
	 viewBox="0 0 135.6 51" style="enable-background:new 0 0 135.6 51;" xml:space="preserve">
<style type="text/css">
	.st0{fill:#F9D10B;}
	.st1{stroke:#000000;stroke-width:0.2835;stroke-miterlimit:10;}
</style>
<title>Rectangle 74</title>
<desc>Created with Sketch.</desc>
<g>
	<path class="st0" d="M27.5,5.7L23.3,1l-3.7,4.7c-4.5,0.6-8.6,2.7-12,6.2c-8.8,8.7-8.7,22.8,0,31.6c8.8,8.8,23,8.8,31.6,0.2
		s8.7-22.9-0.1-31.7C36.4,9.3,31,6.7,27.5,5.7z M19,32c-4-2.6-5.4-8-3-12s8-5.4,12-3s5.4,8,3,12C28.3,33.3,23.2,34.5,19,32z"/>
</g>
<g>
	<g>
		<g>
			<path d="M50.8,33.8h6.9v8.9h-0.6v-0.8h-5.8v0.8h-0.6L50.8,33.8L50.8,33.8z M51.3,34.4v3.2h5.8v-3.2H51.3z M51.3,38.1v3.4h5.8
				v-3.4H51.3z"/>
		</g>
		<g>
			<path d="M61.4,41.6c0.4-0.2,0.8-0.5,1.2-0.9c0,0.1,0,0.2,0,0.3c0,0.2,0,0.3,0,0.3c-0.7,0.4-1.3,0.8-1.8,1.2L60.5,42
				c0.2-0.2,0.3-0.5,0.3-0.8V37h-1.1v-0.5h1.7V41.6z M61.6,35.2c-0.4-0.5-0.9-1-1.5-1.5l0.4-0.4c0.6,0.6,1.2,1.1,1.5,1.5L61.6,35.2z
				 M62.5,34.1v-0.5H69v0.5h-3.8L65,35.5h3.3v2.1h1.2v0.5h-7.2v-0.5H64l0.3-1.7h-1.5v-0.4h1.6l0.2-1.4
				C64.6,34.1,62.5,34.1,62.5,34.1z M63.2,39.3h5.3v3.4H68v-0.6h-4.2v0.6h-0.6V39.3z M63.7,39.8v1.8H68v-1.8H63.7z M67.7,36h-2.9
				l-0.3,1.7h3.1V36H67.7z"/>
		</g>
		<g>
			<path d="M72.2,33.8h0.5l-2.6,8.3h-0.5L72.2,33.8z"/>
		</g>
		<g>
			<path d="M74.4,33.8h6.9v8.9h-0.6v-0.8H75v0.8h-0.6V33.8z M75,34.4v3.2h5.8v-3.2H75z M75,38.1v3.4h5.8v-3.4H75z"/>
		</g>
		<g>
			<path d="M83.8,41c-0.1-0.1-0.2-0.3-0.4-0.5c1.8-1.3,3.2-3,4.1-5.1h-3.7V35H88v-1.8h0.6V35h4.2v0.5H89c0.9,2.1,2.2,3.7,4.1,4.9
				c-0.2,0.2-0.3,0.4-0.4,0.5c-1.9-1.4-3.3-3.2-4.1-5.4l0,0v4.8h2.3v0.5h-2.3v2H88v-2h-2.4v-0.5H88v-4.8l0,0
				C87.1,37.8,85.7,39.6,83.8,41z"/>
		</g>
		<g>
			<path d="M96.6,35l0.4-0.3c0.1,0.2,0.3,0.4,0.5,0.7c0.4,0.5,0.6,0.9,0.8,1.1l-0.5,0.3c0,0-0.1-0.1-0.1-0.2
				c-0.1-0.1-0.1-0.3-0.3-0.5c-0.8,0.3-1.5,0.6-2.3,0.9c-0.2,0.1-0.4,0.2-0.6,0.4L94.1,37c0.2-0.2,0.3-0.4,0.3-0.8v-2.4
				c1.2-0.1,2.3-0.3,3.3-0.5l0.2,0.5c-1,0.2-2,0.4-3,0.5v2.3c0.4-0.1,1.2-0.4,2.2-0.9c0-0.1-0.1-0.1-0.2-0.2
				C96.8,35.3,96.7,35.1,96.6,35z M94.8,38.1h7.4v4.7h-0.5v-0.4h-6.4v0.5h-0.5V38.1z M95.3,38.5V40h2.9v-1.5H95.3z M95.3,40.4v1.4
				h2.9v-1.4H95.3z M98.4,34.3v-0.5h4.4c0,0.3,0,0.9-0.1,1.7c0,0.2,0,0.3,0,0.4c0,1-0.5,1.5-1.5,1.4c-0.4,0-0.8,0-1,0
				c0-0.2,0-0.4-0.1-0.5c0.2,0,0.5,0,1,0c0.6,0.1,0.9-0.3,1-1c0-0.1,0-0.3,0-0.6c0-0.5,0-0.8,0-1H100c0.1,1.6-0.5,2.7-1.8,3.5
				c-0.1-0.1-0.2-0.3-0.4-0.4c1.2-0.7,1.7-1.7,1.7-3.1L98.4,34.3L98.4,34.3z M101.7,38.5h-2.9V40h2.9V38.5z M98.8,40.4v1.4h2.9v-1.4
				H98.8z"/>
		</g>
		<g>
			<path d="M108.7,38.9l2.2-1.2h-5v-0.5h5.7v0.6l-2.3,1.4v0.4h4.4v0.5h-4.4v1.5c0,0.8-0.4,1.2-1.2,1.2c-0.4,0-0.8,0-1.3,0
				c0-0.1,0-0.1,0-0.2c0-0.2-0.1-0.3-0.1-0.4c0.4,0,0.8,0,1.3,0c0.6,0.1,0.8-0.2,0.8-0.7v-1.4H104v-0.5h4.8v-0.7H108.7z M104.3,35.4
				h9v1.9h-0.6v-1.4h-7.9v1.4h-0.6L104.3,35.4L104.3,35.4z M105.1,33.7l0.4-0.3c0.5,0.5,0.9,1,1.2,1.4l-0.5,0.4
				C106,34.8,105.6,34.3,105.1,33.7z M107.9,33.4l0.5-0.2c0.4,0.5,0.7,1,1.1,1.6l-0.5,0.3C108.6,34.4,108.2,33.9,107.9,33.4z
				 M111.1,35.2l-0.5-0.4c0.5-0.5,1-1,1.4-1.6l0.5,0.4c-0.1,0.2-0.3,0.4-0.6,0.7C111.5,34.8,111.2,35,111.1,35.2z"/>
		</g>
		<g>
			<path d="M115.5,42.7H115v-8.9h8.3v7.7c0,0.8-0.4,1.1-1.1,1.1c-0.4,0-0.8,0-1.3,0c0-0.1,0-0.1,0-0.2c0-0.2-0.1-0.3-0.1-0.4
				c0.2,0,0.6,0,1.2,0s0.9-0.2,0.8-0.7v-7.1h-7.3V42.7z M116,35.8l0.4-0.2c0.2,0.3,0.4,0.7,0.7,1.2c0.2,0.4,0.4,0.7,0.5,0.8
				c0-0.1,0.1-0.2,0.1-0.3c0.4-0.8,0.6-1.5,0.7-1.9l0.5,0.2c-0.3,0.9-0.7,1.7-1.1,2.5c0.4,0.7,0.8,1.3,1.1,2l-0.5,0.3
				c-0.3-0.6-0.6-1.2-0.9-1.7c-0.5,0.8-0.9,1.6-1.4,2.3c0,0-0.1,0-0.1-0.1c-0.1-0.1-0.2-0.1-0.4-0.2c0.6-0.9,1.1-1.7,1.6-2.6
				c-0.1-0.2-0.3-0.5-0.6-1C116.4,36.5,116.2,36.1,116,35.8z M119.1,36l0.4-0.2c0.2,0.3,0.5,0.8,0.8,1.4c0.1,0.2,0.2,0.4,0.3,0.6
				c0.4-0.8,0.7-1.6,1-2.3l0.5,0.2c-0.3,0.8-0.7,1.7-1.2,2.7c0.1,0.2,0.3,0.5,0.5,0.8c0.1,0.2,0.4,0.7,0.8,1.5l-0.5,0.2
				c-0.3-0.6-0.4-0.7-0.1-0.2c-0.2-0.5-0.6-1-1-1.8c-0.5,0.8-0.9,1.6-1.4,2.3c-0.1-0.1-0.3-0.2-0.5-0.3c0.7-1,1.2-1.8,1.6-2.5
				c-0.2-0.3-0.4-0.7-0.7-1.3C119.5,36.6,119.3,36.2,119.1,36z"/>
		</g>
		<g>
			<path d="M126.2,36.5v4.6c0.5-0.5,0.9-0.8,1.2-1.1c0,0.1,0.1,0.1,0.1,0.2c0.1,0.1,0.1,0.2,0.1,0.3c-0.2,0.2-0.5,0.4-0.8,0.7
				c-0.2,0.2-0.4,0.4-0.6,0.4c0,0-0.1,0.1-0.2,0.2c-0.1,0.1-0.2,0.2-0.2,0.2l-0.4-0.4c0.2-0.2,0.3-0.5,0.3-0.7V37h-1.1v-0.5H126.2z
				 M126.5,35.3c-0.1-0.1-0.3-0.3-0.4-0.5c-0.4-0.5-0.7-0.8-0.9-1l0.4-0.3c0.5,0.5,0.9,1,1.4,1.5L126.5,35.3z M127.3,38.8h3.1v-1.2
				h-2.6v-4h5.7v4h-2.6v1.2h3.1v0.5h-2.9c0.8,1,1.8,1.8,3.2,2.3c0,0,0,0.1-0.1,0.1c-0.1,0.2-0.2,0.4-0.3,0.4
				c-1.4-0.7-2.4-1.5-3.1-2.5v3.1h-0.5v-3.1c-0.8,1.1-1.8,2-3.1,2.6c0-0.1-0.1-0.2-0.2-0.3s-0.1-0.1-0.1-0.2
				c1.3-0.6,2.4-1.4,3.2-2.5h-2.8V38.8z M128.4,34.1v1.3h2.1v-1.3H128.4z M128.4,35.8v1.3h2.1v-1.3H128.4z M133,34.1h-2.1v1.3h2.1
				V34.1z M130.9,35.8v1.3h2.1v-1.3H130.9z"/>
		</g>
	</g>
	<g>
		<path class="st1" d="M52.9,14.1l1.3,0.4c-1.4,3.8-2.9,7.3-4.7,10.6c-0.4-0.3-0.8-0.5-1.3-0.7C50,21.5,51.6,18.1,52.9,14.1z
			 M58,9.4h1.3v17.3c0.1,1.6-0.8,2.5-2.6,2.6c-0.9,0-1.9,0-2.9,0c-0.1-0.4-0.2-0.8-0.3-1.3c0.9,0,1.8,0,2.7,0c1.4,0.1,2-0.4,1.9-1.6
			v-17H58z M62.5,14.7l1.1-0.5c1.1,1.9,2.8,5.3,5.1,10l-1.3,0.6C65.9,21.4,64.3,18,62.5,14.7z"/>
		<path class="st1" d="M70,11h6.4V9.2h1.1V11H83V9.2h1.1V11h6.4v0.9h-6.4v1.4H83v-1.4h-5.5v1.4h-1.1v-1.4H70V11z M70.5,25.6h15.3
			v0.9H70.5V25.6z M70.7,14.1h19.1v3.5h-1.1V15H71.8v2.6h-1.1C70.7,17.6,70.7,14.1,70.7,14.1z M73.6,23.8v-6.6h4.3
			c0.1-0.2,0.1-0.4,0.3-0.7c0.1-0.1,0.2-0.4,0.4-0.9l1.1,0.3c-0.1,0.3-0.3,0.8-0.6,1.4h7.4c0,0.2,0,0.6-0.1,1.2c0,0.5,0,0.9-0.1,1.2
			c-0.1,1.4-0.9,2-2.6,2c-0.7,0-1.2,0-1.5,0c0-0.2-0.1-0.6-0.3-1c0.6,0,1.2,0,1.8,0c1,0.1,1.6-0.3,1.6-1.1c0-0.2,0-0.5,0.1-0.9
			c0-0.2,0-0.4,0-0.5H74.7V23h14.6c0,1-0.1,2.2-0.2,3.8c-0.1,1.7-1.2,2.6-3.5,2.6c-0.6,0.1-1.4,0.1-2.5,0c-0.4,0-0.7,0-0.9,0
			c0-0.1,0-0.1-0.1-0.2c0-0.2-0.1-0.6-0.3-1c0.5,0.1,1.7,0.1,3.6,0.1c1.6,0.1,2.4-0.5,2.4-1.6c0.1-1.1,0.2-2,0.2-2.7H73.6V23.8z
			 M80.5,21.7c-1.1-0.7-2.2-1.4-3.3-1.9l0.6-0.8c1.3,0.6,2.4,1.1,3.3,1.7L80.5,21.7z"/>
		<path class="st1" d="M94.3,29.4h-1.1V10.5h17.6v16.4c0,1.6-0.8,2.4-2.4,2.4c-0.8,0.1-1.7,0.1-2.8,0.1c0-0.1,0-0.3-0.1-0.4
			c-0.1-0.4-0.1-0.7-0.2-0.9c0.5,0.1,1.4,0.1,2.6,0.1c1.2,0.1,1.8-0.4,1.8-1.4V11.6H94.3V29.4z M95.4,14.7l0.9-0.5
			c0.3,0.6,0.9,1.4,1.5,2.6c0.5,0.8,0.9,1.4,1.1,1.8c0.1-0.2,0.1-0.4,0.3-0.7c0.8-1.8,1.3-3.1,1.5-3.9l1.1,0.3
			c-0.7,1.8-1.4,3.6-2.3,5.3c0.9,1.4,1.6,2.8,2.4,4.3l-1,0.6c-0.7-1.4-1.3-2.6-2-3.6c-1,1.8-2,3.4-3,4.9c-0.1,0-0.1-0.1-0.2-0.2
			c-0.2-0.1-0.4-0.3-0.8-0.4c1.3-1.9,2.4-3.7,3.3-5.5c-0.3-0.5-0.7-1.1-1.2-2C96.4,16.4,95.8,15.4,95.4,14.7z M102,15.2l0.9-0.5
			c0.4,0.7,1,1.7,1.8,3.1c0.3,0.5,0.5,0.9,0.7,1.2c0.9-1.7,1.6-3.4,2.1-4.9l1,0.4c-0.6,1.6-1.4,3.5-2.6,5.6c0.2,0.4,0.6,1,1,1.8
			c0.3,0.5,0.9,1.6,1.7,3.2l-1,0.5c-0.7-1.3-0.8-1.5-0.3-0.5c-0.5-1-1.2-2.2-2-3.7c-1,1.7-1.9,3.3-2.9,4.8c-0.2-0.2-0.6-0.5-1-0.7
			c1.4-2,2.5-3.8,3.3-5.2c-0.3-0.6-0.9-1.5-1.5-2.7C102.8,16.4,102.3,15.7,102,15.2z"/>
		<path class="st1" d="M114,23.8c-0.1-0.1-0.1-0.3-0.3-0.5c-0.2-0.3-0.3-0.6-0.4-0.7c1.4-2.2,2.5-4.9,3.4-8h-2.8v-1h2.8V9.2h1.1v4.4
			h2.5v1h-2.5v2.5l0.6-0.4c0.2,0.2,0.5,0.6,0.9,1c0.5,0.6,0.9,1,1.1,1.3l-0.8,0.6c-0.6-0.9-1.2-1.6-1.8-2.2v12.2h-1.1V16.7
			C116,19.5,115.1,21.9,114,23.8z M133.7,29.2c-2.8-1.1-4.9-2.3-6.3-3.6c-1.6,1.4-3.8,2.7-6.6,3.9c-0.1-0.1-0.2-0.3-0.3-0.5
			c-0.2-0.3-0.3-0.5-0.3-0.6c3-1.1,5.2-2.4,6.5-3.7c-1.3-1.5-2.3-3.2-3.1-5.3l0.9-0.4c0.9,2.2,1.9,3.8,2.9,4.9
			c1.2-1.2,2.1-3,2.8-5.1l1.1,0.4c-0.8,2.2-1.8,4.1-3.1,5.5c1.4,1.4,3.5,2.4,6.1,3.2c-0.1,0.1-0.1,0.2-0.2,0.3
			C134,28.5,133.9,28.8,133.7,29.2z M125,14.7l0.9,0.6c-1.3,1.7-2.7,3.4-4.3,4.9c-0.1-0.1-0.3-0.3-0.5-0.4c-0.2-0.2-0.3-0.3-0.3-0.3
			C122.4,18,123.8,16.4,125,14.7z M121.5,12.4h12.4v1.1h-12.4C121.5,13.5,121.5,12.4,121.5,12.4z M126.2,9.5l0.9-0.3
			c0.5,0.7,1,1.6,1.4,2.6l-1,0.4C127.1,11.3,126.7,10.4,126.2,9.5z M128.7,15.4l0.8-0.7c1.9,1.7,3.4,3.2,4.5,4.4l-0.8,0.8
			C131.2,17.8,129.7,16.3,128.7,15.4z"/>
	</g>
</g>
</svg>
