<?xml version="1.0" encoding="utf-8"?>
<!-- Generator: Adobe Illustrator 22.0.0, SVG Export Plug-In . SVG Version: 6.00 Build 0)  -->
<svg version="1.1" id="图层_1" xmlns="http://www.w3.org/2000/svg" xmlns:xlink="http://www.w3.org/1999/xlink" x="0px" y="0px"
	 viewBox="0 0 118 186" style="enable-background:new 0 0 118 186;" xml:space="preserve">
<style type="text/css">
	.st0{fill:#F9D10C;}
	.st1{fill:none;stroke:#F9D10C;stroke-width:8;stroke-miterlimit:10;}
</style>
<title>Group 27</title>
<desc>Created with Sketch.</desc>
<g id="Page-1">
	<g id="Group-27">
		<path id="_x36_对1申请-培训体系" d="M-258.6,136.5c2.6,0,4.2,1.3,4.6,3.8h-1.6c-0.3-1.6-1.3-2.4-3-2.4
			c-1.1,0-2,0.5-2.6,1.7c-0.6,1-0.9,2.4-0.9,4c0,0.1,0,0.3,0,0.5h0.1c0.4-0.7,0.9-1.3,1.5-1.7c0.6-0.4,1.4-0.6,2.2-0.6
			c1.4,0,2.5,0.4,3.3,1.3c0.8,0.9,1.2,2,1.2,3.4s-0.5,2.6-1.4,3.5c-0.9,0.9-2.1,1.4-3.5,1.4c-1.7,0-3-0.7-3.9-1.9
			c-0.8-1.2-1.2-2.9-1.2-5.1c0-2.3,0.4-4.1,1.3-5.6C-261.5,137.2-260.3,136.5-258.6,136.5z M-258.7,143.1c-0.9,0-1.7,0.3-2.3,1
			c-0.6,0.6-0.9,1.4-0.9,2.4s0.3,1.8,0.9,2.5c0.6,0.7,1.4,1,2.4,1c1,0,1.7-0.3,2.3-1c0.6-0.7,0.9-1.5,0.9-2.5s-0.3-1.8-0.9-2.4
			C-256.9,143.4-257.7,143.1-258.7,143.1z M-243.3,138.6h5.8v-3.9h1.4v3.9h2.2v1.4h-2.2v11c0,1.3-0.7,2-2.1,2h-3.1l-0.3-1.4
			c1,0.1,2,0.1,2.9,0.1c0.7,0,1.1-0.4,1.1-1.1V140h-5.8V138.6z M-250.5,139.9l-1,0.9c1.4,1.6,2.7,3.1,3.8,4.6c-1,2-2.5,3.7-4.4,5.1
			l0.8,1.3c1.8-1.5,3.3-3.2,4.4-5.2c0.7,1,1.4,2,2,3l1-1c-0.7-1.1-1.5-2.3-2.3-3.4c1-2.2,1.6-4.7,1.7-7.4v-1.1h-6.8v1.4h5.5
			c-0.1,2.1-0.6,4.1-1.3,5.9C-248,142.6-249.2,141.2-250.5,139.9z M-242.2,142.3c1.3,1.6,2.4,3.1,3.1,4.4l-1.1,0.8
			c-0.8-1.4-1.8-2.8-3.1-4.4L-242.2,142.3z M-228.2,136.8c-0.5,0.5-1,1-1.7,1.5c-0.7,0.4-1.4,0.7-2,0.9v1.6c1.3-0.4,2.5-1,3.4-2V151
			h1.6v-14.3H-228.2z M-215.5,134.8h1.5v3h6.3v11.2h-1.4v-1.2h-4.9v5.2h-1.5v-5.2h-5v1.4h-1.4v-11.3h6.4V134.8z M-220.5,146.4h5v-3
			h-5V146.4z M-214,146.4h4.9v-3h-4.9V146.4z M-220.5,142.1h5v-3h-5V142.1z M-214,142.1h4.9v-3h-4.9V142.1z M-192.5,134.7h1.4v1.3h5
			v1.2h-5v1.3h4.2v1.2h-4.2v1.4h5.5v1.2h-12.2V141h5.4v-1.4h-4v-1.2h4v-1.3h-4.8V136h4.8V134.7z M-195,147.3v1.5h6.5v-1.5H-195z
			 M-188.6,146.1v-1.5h-6.5v1.5H-188.6z M-195,149.9v3.2h-1.4v-9.5h9.2v7.8c0,1.1-0.6,1.6-1.7,1.6h-1.7l-0.3-1.3l1.6,0.1
			c0.5,0,0.7-0.2,0.7-0.7v-1.1H-195z M-201.6,134.9l-1,1c1.4,1.1,2.6,2.1,3.4,3.1l1-1C-199.1,136.9-200.2,135.9-201.6,134.9z
			 M-204,140.8h4.2v8.8c0.6-0.6,1.2-1.2,1.9-1.9l0.4,1.5c-1.1,1.2-2.3,2.2-3.6,3.1l-0.6-1.3c0.3-0.3,0.5-0.6,0.5-0.9v-7.9h-2.9
			V140.8z M-263.9,168h2.4v-5.2h1.4v5.2h2.2v1.4h-2.2v6.6c0.9-0.3,1.8-0.7,2.6-1.1v1.4c-2,0.9-4.1,1.7-6.3,2.3l-0.4-1.4
			c0.9-0.2,1.8-0.4,2.6-0.7v-7.1h-2.4V168z M-257.2,164.7v1.4h10.6v-1.4h-4.6c-0.2-0.8-0.4-1.5-0.6-2.1l-1.5,0.2
			c0.2,0.6,0.5,1.2,0.7,1.8H-257.2z M-257.7,170.2h3.2c-0.4-1-0.9-2-1.4-2.9l1.3-0.5c0.5,0.9,1,2,1.5,3.4h2.8c0.6-1.1,1-2.3,1.5-3.5
			l1.3,0.5c-0.4,1.2-0.9,2.2-1.4,3.1h2.9v1.4h-11.6V170.2z M-247.3,173.4v7.5h-1.4v-1.1h-6.2v1.1h-1.4v-7.5H-247.3z M-254.9,178.5
			h6.2v-3.7h-6.2V178.5z M-232.1,164.1v15.6h1.4v-15.6H-232.1z M-227.9,163.1v18h1.4v-18H-227.9z M-236.1,163.1h1.4v8.8
			c0,4.2-1,7.3-2.7,9.2l-1.1-1c1.6-1.7,2.4-4.5,2.4-8.2V163.1z M-241.6,162.9c1.4,1,2.5,2,3.4,3.1l-1,1c-0.8-1-2-2-3.4-3.1
			L-241.6,162.9z M-243.9,168.8h4.3v8.6c0.6-0.5,1.1-1.1,1.7-1.7l0.4,1.5c-1.1,1.1-2.2,2.1-3.4,3l-0.6-1.3c0.3-0.3,0.4-0.6,0.4-0.9
			v-7.8h-2.9V168.8z M-221.6,170.2c-0.6,0.9-1.3,1.8-2,2.6l-0.4-1.4c2.1-2.6,3.6-5.5,4.5-8.8l1.3,0.6c-0.5,1.7-1.2,3.2-1.9,4.7v13.1
			h-1.4V170.2z M-218.6,166.1h5.3v-3.4h1.4v3.4h5.5v1.4h-4.1c0.9,3.3,2.5,6.2,4.9,8.8l-0.9,1.2c-2.4-3-4.1-6.3-5.1-10h-0.2v8h3.1
			v1.4h-3.1v4.1h-1.4v-4.1h-3.1v-1.4h3.1v-8h-0.2c-1,4.2-2.7,7.6-5.2,10.2l-0.7-1.2c2.2-2.3,3.8-5.3,4.8-9h-3.9V166.1z M-195.6,181
			h-2.2l-0.3-1.4c0.7,0.1,1.4,0.1,2.1,0.1c0.5,0,0.7-0.3,0.7-0.7V174c-1.9,0.1-4,0.2-6.3,0.3l-0.4-1.3c0.5,0,0.9-0.1,1.3-0.3
			c1.6-0.7,3.5-1.8,5.5-3.4c-1.7,0.1-3.6,0.3-5.6,0.4l-0.3-1.3c0.4,0,0.7-0.1,1-0.3c1-0.5,2.2-1.5,3.5-3c-1.7,0.1-3.5,0.1-5.4,0.1
			l-0.4-1.3c5.7,0,10.5-0.4,14.3-1.3l0.7,1.2c-2.1,0.5-4.5,0.8-7.4,1.1c-1.2,1.4-2.5,2.6-3.8,3.4c1.6-0.1,3.2-0.2,4.9-0.3
			c0.9-0.7,1.8-1.5,2.8-2.4l1.3,0.7c-3.4,3-6.3,5.1-8.8,6.4c3.3-0.2,6.1-0.4,8.4-0.7c-0.5-0.6-1-1.3-1.6-1.9l1.1-0.7
			c1.6,1.9,2.9,3.6,3.8,5l-1.2,0.8c-0.4-0.7-0.8-1.4-1.3-2.1c-1.4,0.2-2.9,0.3-4.6,0.4v5.4C-193.9,180.4-194.5,181-195.6,181z
			 M-191.1,175.1c2,1.5,3.7,2.9,5.1,4.4l-1,1c-1.2-1.4-2.9-2.9-5-4.5L-191.1,175.1z M-198.8,175.3l1,0.9c-1.4,1.6-3,3.1-5,4.3
			l-0.9-1.2C-201.7,178.1-200.1,176.8-198.8,175.3z"/>
		<circle id="Oval-6" class="st0" cx="-224.8" cy="55" r="59"/>
		<path id="_x36_对1" d="M-244.8,43.9c4.1,0,6.5,1.9,7.1,5.8h-3.2c-0.5-2.1-1.7-3.1-3.9-3.1c-1.5,0-2.7,0.7-3.5,2.2
			c-0.9,1.4-1.3,3.1-1.3,5.2c0,0.1,0,0.2,0,0.4h0.1c0.6-1,1.4-1.7,2.3-2.1c0.8-0.4,1.8-0.7,3-0.7c2.1,0,3.8,0.7,5,2
			c1.2,1.4,1.9,3.1,1.9,5.2c0,2.1-0.7,3.9-2.1,5.3c-1.4,1.4-3.2,2.1-5.3,2.1c-2.6,0-4.6-1-6-2.9c-1.3-1.8-2-4.4-2-7.6
			c0-3.5,0.7-6.3,2.1-8.5C-249.3,44.9-247.3,43.9-244.8,43.9z M-244.9,54.2c-1.4,0-2.4,0.4-3.2,1.3s-1.2,2-1.2,3.4
			c0,1.4,0.4,2.5,1.2,3.3c0.8,0.8,1.8,1.3,3.1,1.3c1.3,0,2.4-0.4,3.1-1.3c0.8-0.9,1.2-2,1.2-3.4c0-1.4-0.4-2.5-1.2-3.3
			C-242.6,54.6-243.6,54.2-244.9,54.2z M-221.9,46.7h8.4V41h2.9v5.7h3.1v2.8h-3.1v15.8c0,2.3-1.2,3.5-3.6,3.5h-4.6l-0.6-2.8
			c1.4,0.1,2.9,0.2,4.2,0.2c1.1,0,1.7-0.5,1.7-1.6V49.5h-8.4V46.7z M-232.2,48.8l-1.9,1.8c2,2.3,3.9,4.5,5.5,6.7
			c-1.5,2.7-3.6,5.1-6.3,7.1l1.6,2.5c2.6-2.2,4.8-4.6,6.4-7.3c0.9,1.4,1.8,2.7,2.5,4l2.1-2.1c-1-1.5-2-3.1-3.2-4.6
			c1.5-3.3,2.3-7,2.4-11v-2.1h-10.5v2.8h8c-0.1,2.8-0.7,5.5-1.6,7.9C-228.8,52.6-230.5,50.8-232.2,48.8z M-219.8,52.5
			c1.9,2.4,3.4,4.6,4.5,6.4l-2.2,1.6c-1.1-2-2.6-4.1-4.4-6.4L-219.8,52.5z M-199.2,44.3c-0.7,0.8-1.6,1.5-2.7,2.1
			c-1.1,0.6-2.1,1-3,1.3v3.2c2-0.6,3.6-1.5,4.9-2.7v17.5h3.3V44.3H-199.2z"/>
	</g>
</g>
<circle class="st1" cx="59" cy="59.1" r="54"/>
<g>
	<path d="M59.6,91.3C45.8,91.3,36.5,80,36.5,60s9.3-31.2,23.1-31.2c13.7,0,23,11.3,23,31.2S73.3,91.3,59.6,91.3z M59.6,35.8
		c-9.3,0-14.9,8.5-14.9,24.2c0,15.7,5.6,24.2,14.9,24.2S74.4,75.7,74.4,60C74.4,44.4,68.8,35.8,59.6,35.8z"/>
</g>
<g>
	<path d="M19.3,129.2l1-0.6c0.2,0.4,0.6,0.9,1.1,1.6c0.8,1.2,1.4,2,1.7,2.5l-1.1,0.6c-0.1-0.1-0.2-0.2-0.3-0.4
		c-0.1-0.2-0.3-0.6-0.6-1.2c-1.7,0.6-3.4,1.3-5,2.1c-0.5,0.2-1,0.4-1.4,0.8l-1-1c0.4-0.4,0.6-1,0.6-1.7v-5.3
		c2.6-0.2,5.1-0.6,7.5-1.2l0.4,1.1c-2.3,0.5-4.5,0.8-6.7,1.1v5.1c1-0.3,2.6-1,4.9-2c-0.1-0.1-0.2-0.3-0.4-0.5
		C19.7,129.8,19.5,129.4,19.3,129.2z M15.2,136h16.5v10.4h-1.2v-1H16.4v1.1h-1.2V136z M16.4,137.1v3.2h6.5v-3.2H16.4z M16.4,141.3
		v3.1h6.5v-3.1H16.4z M23.3,127.5v-1.1H33c0,0.7-0.1,2-0.2,3.8c0,0.4,0,0.6,0,0.8c-0.1,2.2-1.1,3.3-3.2,3.2c-1,0-1.7,0-2.2,0
		c0-0.4-0.1-0.8-0.3-1.2c0.4,0.1,1.2,0.1,2.3,0.1c1.4,0.1,2.1-0.6,2.2-2.2c0-0.2,0-0.6,0-1.3c0.1-1,0.1-1.8,0.1-2.2H27
		c0.1,3.5-1.2,6.1-4,7.7c-0.2-0.3-0.5-0.6-0.9-0.8c2.6-1.5,3.9-3.8,3.7-6.9H23.3z M30.6,137.1h-6.5v3.2h6.5V137.1z M24.1,141.3v3.1
		h6.5v-3.1H24.1z"/>
	<path d="M46.3,137.9l4.9-2.8H40v-1.2h12.7v1.4l-5.1,3.1v0.9h9.7v1.2h-9.7v3.3c0.1,1.7-0.8,2.6-2.6,2.6c-0.9,0-1.9,0-3,0
		c0-0.1,0-0.3-0.1-0.4c-0.1-0.4-0.1-0.8-0.2-1c0.9,0.1,1.9,0.1,2.9,0.1c1.3,0.1,1.8-0.4,1.7-1.5v-3.1H35.7v-1.2h10.6V137.9z
		 M36.5,130h20v4.2h-1.3v-3.1H37.8v3.1h-1.3V130z M38.3,126.2l1-0.6c1.1,1.2,1.9,2.2,2.6,3.1l-1.1,0.8
		C40.2,128.6,39.4,127.5,38.3,126.2z M44.4,125.6l1.1-0.5c0.8,1.1,1.6,2.2,2.4,3.5l-1.2,0.6C46,127.8,45.2,126.6,44.4,125.6z
		 M51.5,129.7l-1.1-0.8c1.1-1.1,2.2-2.3,3.1-3.5l1.1,0.8c-0.3,0.4-0.8,0.9-1.4,1.6C52.4,128.6,51.9,129.3,51.5,129.7z"/>
	<path d="M61.3,127.4v7.4c0,3.2-0.1,5.6-0.4,7.2c-0.2,1.5-0.8,3-1.5,4.5c-0.3-0.3-0.6-0.5-1-0.7c0.7-1.4,1.2-2.8,1.4-4.1
		c0.2-1.3,0.3-3.6,0.3-6.9v-8.4h8.6v1.1H61.3z M63.3,130.1h5.1v6.7c0.1,1.5-0.6,2.2-1.9,2.2c-0.2,0.1-0.5,0.1-1.1,0.1
		c-0.1-0.3-0.1-0.6-0.2-0.9c0,0.1,0,0-0.1-0.3c0.4,0,0.7,0,1.2,0c0.7,0.1,1-0.3,1-1.2v-5.7h-3v12.7c0.8-0.4,2.2-1.1,4.4-2.2
		c0,0.6,0,1,0.1,1.2c-0.2,0.1-0.5,0.3-1,0.4c-1.7,0.8-2.9,1.4-3.4,1.7c-0.4,0.3-0.8,0.6-1.1,0.8l-0.7-0.9c0.4-0.5,0.6-1,0.6-1.7
		V130.1z M79.4,146.3c-0.7-0.7-1.5-1.5-2.5-2.5c-1-1-1.7-1.7-2.2-2.2c-0.6,1.8-2.3,3.4-5,4.9c-0.3-0.4-0.6-0.7-0.9-1
		c2.3-1.1,3.8-2.3,4.5-3.6c0.7-1.2,1-3.4,1-6.6v-2.2h1.2v2.2c0,2.6-0.2,4.6-0.7,5.9l0.7-0.5c2,1.9,3.6,3.4,4.9,4.6L79.4,146.3z
		 M70.3,130.9h2.9l0.7-3.5h-4.2v-1.1h10.4v1.1h-5l-0.8,3.5h4.9v10.2h-1.1v-9.3h-6.6v9.4h-1.2V130.9z"/>
	<path d="M83,129.4h1.2v17H83V129.4z M84,125.9l1-0.8c1.7,1.7,2.7,2.8,3.1,3.2l-1,0.8C85.9,127.8,84.8,126.7,84,125.9z M88,131.9h9
		v8.5h-9V131.9z M89.2,132.9v6.4h6.6v-6.4H89.2z M89.5,127.6v-1.2h12.6v16.6c0.1,1.9-0.9,2.9-3.1,3c-1.2,0-2.4,0-3.5,0
		c0-0.4-0.1-0.8-0.3-1.3c0.4,0,1,0,1.8,0.1c0.8,0,1.3,0,1.7,0c1.4,0.1,2.1-0.6,2.1-2v-15.3H89.5z"/>
	<path d="M23.5,151.5c4,0,5.9,3.1,5.9,9.3c-0.1,5.9-2,9-5.8,9.1c-4-0.1-6-3.1-6-9.1C17.7,154.8,19.7,151.7,23.5,151.5z M23.5,168.9
		c3.1,0.1,4.6-2.6,4.5-8c0.1-5.5-1.5-8.2-4.6-8.2c-2.9,0.1-4.3,2.8-4.4,8.2C19,166.2,20.5,168.9,23.5,168.9z"/>
	<path d="M31.4,156.8h3.7v-4.2c-1,0.1-2.1,0.2-3.3,0.2c0-0.1,0-0.3-0.1-0.6c-0.1-0.2-0.1-0.4-0.2-0.5c2.9-0.1,5.5-0.3,7.9-0.6
		l0.3,1.2c-1.1,0.2-2.2,0.3-3.3,0.4v4.3h3.2v1.1h-3.2v3.5l0.6-0.6c1,0.9,2.1,2,3.2,3.4l-0.9,0.8c-0.4-0.5-1-1.2-1.8-2.1
		c-0.5-0.6-0.9-1-1.2-1.3v10h-1.3V160c-0.7,2.8-1.9,5.3-3.4,7.4c-0.2-0.5-0.4-0.9-0.6-1.3c1.7-2.1,3-4.8,4-8.2h-3.7V156.8z
		 M38.4,170.5c5.5-1.7,9.5-4.8,11.9-9.3l1.1,0.6c-2.5,4.6-6.5,7.8-12.1,9.8C39,171.3,38.8,170.9,38.4,170.5z M42.4,154.2l1.2,0.4
		c-1.1,2.7-2.1,5.1-3.1,7.1l-1.2-0.5C40.2,159.3,41.3,157,42.4,154.2z M45.3,150.1h1.2V164h-1.2V150.1z M48.2,154.5l1-0.5
		c1.4,2,2.7,4,3.8,5.8l-1.1,0.6C50.9,158.9,49.7,157,48.2,154.5z"/>
	<path d="M55.5,151.4h19v20h-1.2v-1.5H56.7v1.5h-1.2V151.4z M56.7,152.4v16.4h16.7v-16.4H56.7z M60.5,156.5h9v8.2h-9V156.5z
		 M61.7,157.6v6h6.6v-6H61.7z"/>
	<path d="M77.9,157.1c-0.2-0.3-0.5-0.6-0.8-1c2.1-1.6,3.9-3.6,5.4-6.2l1.3,0.3c-0.4,0.5-0.7,1-1,1.5h15.7v1.1H82
		C80.8,154.4,79.5,155.9,77.9,157.1z M98.2,171.3c-3.8-0.6-6.9-1.3-9.4-2.2c-2.6,1-5.8,1.9-9.6,2.5c-0.2-0.4-0.4-0.7-0.6-1.1
		c3.3-0.5,6.2-1.2,8.7-1.9c-1.6-0.7-3.1-1.6-4.7-3c-1.5,1.3-3,2.3-4.6,3.1c-0.2-0.3-0.4-0.6-0.7-1c2.9-1.4,5.2-3.3,7-5.5l1.3,0.3
		c-0.5,0.5-0.9,1-1.3,1.5h12v1.2c-1.7,1.3-3.7,2.4-5.9,3.3c2.4,0.6,5.2,1.1,8.4,1.5c0,0.1-0.1,0.1-0.2,0.3
		C98.3,170.8,98.2,171.1,98.2,171.3z M80.5,154.9h15.8v7.1H80.5V154.9z M81.6,155.9v2.1h13.5v-2.1H81.6z M81.6,158.9v2.1h13.5v-2.1
		H81.6z M94.6,165.1h-11c1.7,1.4,3.4,2.4,5.1,3C90.6,167.4,92.6,166.4,94.6,165.1z"/>
</g>
</svg>
