<?xml version="1.0" encoding="utf-8"?>
<!-- Generator: Adobe Illustrator 22.0.0, SVG Export Plug-In . SVG Version: 6.00 Build 0)  -->
<svg version="1.1" id="图层_1" xmlns="http://www.w3.org/2000/svg" xmlns:xlink="http://www.w3.org/1999/xlink" x="0px" y="0px"
	 viewBox="0 0 118 186" style="enable-background:new 0 0 118 186;" xml:space="preserve">
<style type="text/css">
	.st0{fill:#F9D10C;}
	.st1{fill:none;stroke:#F9D10C;stroke-width:8;stroke-miterlimit:10;}
</style>
<title>Group 27</title>
<desc>Created with Sketch.</desc>
<g id="Page-1">
	<g id="Group-27">
		<path id="_x36_对1申请-培训体系" d="M-258.6,136.5c2.6,0,4.2,1.3,4.6,3.8h-1.6c-0.3-1.6-1.3-2.4-3-2.4
			c-1.1,0-2,0.5-2.6,1.7c-0.6,1-0.9,2.4-0.9,4c0,0.1,0,0.3,0,0.5h0.1c0.4-0.7,0.9-1.3,1.5-1.7c0.6-0.4,1.4-0.6,2.2-0.6
			c1.4,0,2.5,0.4,3.3,1.3c0.8,0.9,1.2,2,1.2,3.4s-0.5,2.6-1.4,3.5c-0.9,0.9-2.1,1.4-3.5,1.4c-1.7,0-3-0.7-3.9-1.9
			c-0.8-1.2-1.2-2.9-1.2-5.1c0-2.3,0.4-4.1,1.3-5.6C-261.5,137.2-260.3,136.5-258.6,136.5z M-258.7,143.1c-0.9,0-1.7,0.3-2.3,1
			c-0.6,0.6-0.9,1.4-0.9,2.4s0.3,1.8,0.9,2.5c0.6,0.7,1.4,1,2.4,1c1,0,1.7-0.3,2.3-1c0.6-0.7,0.9-1.5,0.9-2.5s-0.3-1.8-0.9-2.4
			C-256.9,143.4-257.7,143.1-258.7,143.1z M-243.3,138.6h5.8v-3.9h1.4v3.9h2.2v1.4h-2.2v11c0,1.3-0.7,2-2.1,2h-3.1l-0.3-1.4
			c1,0.1,2,0.1,2.9,0.1c0.7,0,1.1-0.4,1.1-1.1V140h-5.8V138.6z M-250.5,139.9l-1,0.9c1.4,1.6,2.7,3.1,3.8,4.6c-1,2-2.5,3.7-4.4,5.1
			l0.8,1.3c1.8-1.5,3.3-3.2,4.4-5.2c0.7,1,1.4,2,2,3l1-1c-0.7-1.1-1.5-2.3-2.3-3.4c1-2.2,1.6-4.7,1.7-7.4v-1.1h-6.8v1.4h5.5
			c-0.1,2.1-0.6,4.1-1.3,5.9C-248,142.6-249.2,141.2-250.5,139.9z M-242.2,142.3c1.3,1.6,2.4,3.1,3.1,4.4l-1.1,0.8
			c-0.8-1.4-1.8-2.8-3.1-4.4L-242.2,142.3z M-228.2,136.8c-0.5,0.5-1,1-1.7,1.5c-0.7,0.4-1.4,0.7-2,0.9v1.6c1.3-0.4,2.5-1,3.4-2V151
			h1.6v-14.3H-228.2z M-215.5,134.8h1.5v3h6.3v11.2h-1.4v-1.2h-4.9v5.2h-1.5v-5.2h-5v1.4h-1.4v-11.3h6.4V134.8z M-220.5,146.4h5v-3
			h-5V146.4z M-214,146.4h4.9v-3h-4.9V146.4z M-220.5,142.1h5v-3h-5V142.1z M-214,142.1h4.9v-3h-4.9V142.1z M-192.5,134.7h1.4v1.3h5
			v1.2h-5v1.3h4.2v1.2h-4.2v1.4h5.5v1.2h-12.2V141h5.4v-1.4h-4v-1.2h4v-1.3h-4.8V136h4.8V134.7z M-195,147.3v1.5h6.5v-1.5H-195z
			 M-188.6,146.1v-1.5h-6.5v1.5H-188.6z M-195,149.9v3.2h-1.4v-9.5h9.2v7.8c0,1.1-0.6,1.6-1.7,1.6h-1.7l-0.3-1.3l1.6,0.1
			c0.5,0,0.7-0.2,0.7-0.7v-1.1H-195z M-201.6,134.9l-1,1c1.4,1.1,2.6,2.1,3.4,3.1l1-1C-199.1,136.9-200.2,135.9-201.6,134.9z
			 M-204,140.8h4.2v8.8c0.6-0.6,1.2-1.2,1.9-1.9l0.4,1.5c-1.1,1.2-2.3,2.2-3.6,3.1l-0.6-1.3c0.3-0.3,0.5-0.6,0.5-0.9v-7.9h-2.9
			V140.8z M-263.9,168h2.4v-5.2h1.4v5.2h2.2v1.4h-2.2v6.6c0.9-0.3,1.8-0.7,2.6-1.1v1.4c-2,0.9-4.1,1.7-6.3,2.3l-0.4-1.4
			c0.9-0.2,1.8-0.4,2.6-0.7v-7.1h-2.4V168z M-257.2,164.7v1.4h10.6v-1.4h-4.6c-0.2-0.8-0.4-1.5-0.6-2.1l-1.5,0.2
			c0.2,0.6,0.5,1.2,0.7,1.8H-257.2z M-257.7,170.2h3.2c-0.4-1-0.9-2-1.4-2.9l1.3-0.5c0.5,0.9,1,2,1.5,3.4h2.8c0.6-1.1,1-2.3,1.5-3.5
			l1.3,0.5c-0.4,1.2-0.9,2.2-1.4,3.1h2.9v1.4h-11.6V170.2z M-247.3,173.4v7.5h-1.4v-1.1h-6.2v1.1h-1.4v-7.5H-247.3z M-254.9,178.5
			h6.2v-3.7h-6.2V178.5z M-232.1,164.1v15.6h1.4v-15.6H-232.1z M-227.9,163.1v18h1.4v-18H-227.9z M-236.1,163.1h1.4v8.8
			c0,4.2-1,7.3-2.7,9.2l-1.1-1c1.6-1.7,2.4-4.5,2.4-8.2V163.1z M-241.6,162.9c1.4,1,2.5,2,3.4,3.1l-1,1c-0.8-1-2-2-3.4-3.1
			L-241.6,162.9z M-243.9,168.8h4.3v8.6c0.6-0.5,1.1-1.1,1.7-1.7l0.4,1.5c-1.1,1.1-2.2,2.1-3.4,3l-0.6-1.3c0.3-0.3,0.4-0.6,0.4-0.9
			v-7.8h-2.9V168.8z M-221.6,170.2c-0.6,0.9-1.3,1.8-2,2.6l-0.4-1.4c2.1-2.6,3.6-5.5,4.5-8.8l1.3,0.6c-0.5,1.7-1.2,3.2-1.9,4.7v13.1
			h-1.4V170.2z M-218.6,166.1h5.3v-3.4h1.4v3.4h5.5v1.4h-4.1c0.9,3.3,2.5,6.2,4.9,8.8l-0.9,1.2c-2.4-3-4.1-6.3-5.1-10h-0.2v8h3.1
			v1.4h-3.1v4.1h-1.4v-4.1h-3.1v-1.4h3.1v-8h-0.2c-1,4.2-2.7,7.6-5.2,10.2l-0.7-1.2c2.2-2.3,3.8-5.3,4.8-9h-3.9V166.1z M-195.6,181
			h-2.2l-0.3-1.4c0.7,0.1,1.4,0.1,2.1,0.1c0.5,0,0.7-0.3,0.7-0.7V174c-1.9,0.1-4,0.2-6.3,0.3l-0.4-1.3c0.5,0,0.9-0.1,1.3-0.3
			c1.6-0.7,3.5-1.8,5.5-3.4c-1.7,0.1-3.6,0.3-5.6,0.4l-0.3-1.3c0.4,0,0.7-0.1,1-0.3c1-0.5,2.2-1.5,3.5-3c-1.7,0.1-3.5,0.1-5.4,0.1
			l-0.4-1.3c5.7,0,10.5-0.4,14.3-1.3l0.7,1.2c-2.1,0.5-4.5,0.8-7.4,1.1c-1.2,1.4-2.5,2.6-3.8,3.4c1.6-0.1,3.2-0.2,4.9-0.3
			c0.9-0.7,1.8-1.5,2.8-2.4l1.3,0.7c-3.4,3-6.3,5.1-8.8,6.4c3.3-0.2,6.1-0.4,8.4-0.7c-0.5-0.6-1-1.3-1.6-1.9l1.1-0.7
			c1.6,1.9,2.9,3.6,3.8,5l-1.2,0.8c-0.4-0.7-0.8-1.4-1.3-2.1c-1.4,0.2-2.9,0.3-4.6,0.4v5.4C-193.9,180.4-194.5,181-195.6,181z
			 M-191.1,175.1c2,1.5,3.7,2.9,5.1,4.4l-1,1c-1.2-1.4-2.9-2.9-5-4.5L-191.1,175.1z M-198.8,175.3l1,0.9c-1.4,1.6-3,3.1-5,4.3
			l-0.9-1.2C-201.7,178.1-200.1,176.8-198.8,175.3z"/>
		<circle id="Oval-6" class="st0" cx="-224.8" cy="55" r="59"/>
		<path id="_x36_对1" d="M-244.8,43.9c4.1,0,6.5,1.9,7.1,5.8h-3.2c-0.5-2.1-1.7-3.1-3.9-3.1c-1.5,0-2.7,0.7-3.5,2.2
			c-0.9,1.4-1.3,3.1-1.3,5.2c0,0.1,0,0.2,0,0.4h0.1c0.6-1,1.4-1.7,2.3-2.1c0.8-0.4,1.8-0.7,3-0.7c2.1,0,3.8,0.7,5,2
			c1.2,1.4,1.9,3.1,1.9,5.2c0,2.1-0.7,3.9-2.1,5.3c-1.4,1.4-3.2,2.1-5.3,2.1c-2.6,0-4.6-1-6-2.9c-1.3-1.8-2-4.4-2-7.6
			c0-3.5,0.7-6.3,2.1-8.5C-249.3,44.9-247.3,43.9-244.8,43.9z M-244.9,54.2c-1.4,0-2.4,0.4-3.2,1.3s-1.2,2-1.2,3.4
			c0,1.4,0.4,2.5,1.2,3.3c0.8,0.8,1.8,1.3,3.1,1.3c1.3,0,2.4-0.4,3.1-1.3c0.8-0.9,1.2-2,1.2-3.4c0-1.4-0.4-2.5-1.2-3.3
			C-242.6,54.6-243.6,54.2-244.9,54.2z M-221.9,46.7h8.4V41h2.9v5.7h3.1v2.8h-3.1v15.8c0,2.3-1.2,3.5-3.6,3.5h-4.6l-0.6-2.8
			c1.4,0.1,2.9,0.2,4.2,0.2c1.1,0,1.7-0.5,1.7-1.6V49.5h-8.4V46.7z M-232.2,48.8l-1.9,1.8c2,2.3,3.9,4.5,5.5,6.7
			c-1.5,2.7-3.6,5.1-6.3,7.1l1.6,2.5c2.6-2.2,4.8-4.6,6.4-7.3c0.9,1.4,1.8,2.7,2.5,4l2.1-2.1c-1-1.5-2-3.1-3.2-4.6
			c1.5-3.3,2.3-7,2.4-11v-2.1h-10.5v2.8h8c-0.1,2.8-0.7,5.5-1.6,7.9C-228.8,52.6-230.5,50.8-232.2,48.8z M-219.8,52.5
			c1.9,2.4,3.4,4.6,4.5,6.4l-2.2,1.6c-1.1-2-2.6-4.1-4.4-6.4L-219.8,52.5z M-199.2,44.3c-0.7,0.8-1.6,1.5-2.7,2.1
			c-1.1,0.6-2.1,1-3,1.3v3.2c2-0.6,3.6-1.5,4.9-2.7v17.5h3.3V44.3H-199.2z"/>
	</g>
</g>
<circle class="st1" cx="59" cy="59.1" r="54"/>
<g>
	<path d="M60.1,53.3c11.6,0,18.7,7.1,18.7,18.4c0,11.4-8.8,19.6-20.7,19.6c-12.5,0-21.6-8.8-21.6-25.5c0-20.8,13.4-32.3,32.6-37
		l1.1,7.1C57.8,39,47.6,45.2,44.9,58C49.2,55.1,54.2,53.3,60.1,53.3z M58.3,84.2c7.3,0,12.5-4.5,12.5-12.2c0-7.3-3.8-11.7-12.5-11.7
		c-5.3,0-10.1,1.9-14.2,5.3C44.3,76.9,49.7,84.2,58.3,84.2z"/>
</g>
<g>
	<path d="M23.5,130.6l-1.3,0.4c-0.5-2.3-1.9-3.4-4-3.3c-3.4,0-5.1,2.8-5.1,8.4c1.1-2,2.8-3.1,5.3-3.1c3.4,0.2,5.2,2.2,5.4,5.9
		c-0.2,3.8-2.1,5.8-5.7,6c-4.3,0.1-6.3-2.8-6.3-8.4c0-6.6,2.2-10,6.5-10C21,126.7,22.7,128,23.5,130.6z M13.2,138.4
		c0.1,3.5,1.7,5.4,4.8,5.5c2.9-0.1,4.4-1.7,4.5-4.9c-0.1-3.1-1.6-4.7-4.3-4.9C15.1,134.4,13.5,135.8,13.2,138.4z"/>
	<path d="M27.4,131c0.8,1.1,2.1,3,3.9,5.7c1-2.3,1.6-4.9,2-7.8h-7.1v-1.3h8.4v1.3c-0.5,3.7-1.3,6.6-2.4,9c0.4,0.5,1,1.4,1.8,2.6
		c0.8,1.1,1.3,2,1.7,2.6l-1.2,0.7c-0.3-0.4-0.7-1.1-1.3-2.1c-0.7-1.1-1.3-2-1.6-2.5c-1.2,2.2-2.9,4.4-5,6.5c-0.3-0.4-0.6-0.7-1-1.1
		c2.1-1.8,3.8-4,5.2-6.6c-0.8-1.3-2.1-3.1-3.7-5.5c-0.3-0.4-0.5-0.7-0.6-0.9L27.4,131z M35.9,130.1h7.5v-4.9h1.3v4.9h2.8v1.2h-2.8
		v11.7c0.1,2.2-1,3.2-3.1,3.1c-0.6,0.1-1.6,0.1-3,0.1c0-0.5-0.1-1-0.3-1.4c0.4,0.1,1.4,0.1,3,0.1c1.5,0.1,2.2-0.6,2.1-2.1v-11.5
		h-7.5V130.1z M36.4,134.4l1-0.5c1,1.3,1.9,2.9,3,4.8l-1.2,0.6C38.5,137.8,37.5,136.2,36.4,134.4z"/>
	<path d="M54,129.2c-0.9,1.4-2.7,2.7-5.3,3.9c0-0.4,0-0.8,0-1.3c3.1-1.5,4.9-3.2,5.7-5.2h1v18.1H54V129.2z"/>
	<path d="M66.1,140.2c0,0.2,0.1,0.7,0.3,1.3c0,0.1,0,0.1,0,0.2c-0.1,0.1-0.3,0.3-0.6,0.5c-1.7,1.4-2.7,2.3-3.1,2.8l-0.9-1
		c0.5-0.4,0.8-1,0.7-2v-8.2h-2.8v-1.2h4v9.9C64,142.3,64.8,141.5,66.1,140.2z M64,129.9c-0.5-0.5-1.3-1.5-2.6-2.9
		c-0.2-0.2-0.3-0.4-0.4-0.5l1-0.7c0.9,0.9,1.9,2,3.1,3.3L64,129.9z M66.3,130h3.3v-4.7h1.3v4.7h5.4v-4.7h1.2v4.7h3.2v1.1h-3.2v6.3h4
		v1.1h-4v7.9h-1.2v-7.9h-5.6c-0.1,3.4-1.6,6-4.4,8.1c-0.3-0.3-0.6-0.6-1-0.9c2.7-1.8,4.1-4.2,4.2-7.2h-3.9v-1.1h3.9
		c0.1-0.8,0.1-1.7,0.1-2.6V131h-3.3V130z M70.9,134.7c0,0.9,0,1.8-0.1,2.6h5.5V131h-5.4V134.7z"/>
	<path d="M88.2,125.1h1.2v9c0.2,5.8-1.3,10-4.7,12.6c-0.3-0.4-0.6-0.7-1-0.9c1.8-1.5,3-3,3.6-4.6c0.6-1.6,0.9-3.9,0.9-7V125.1z
		 M84,127h1.2v13.1H84V127z M93.4,143.4h-1.2v-11.9h5v-3.9h-5.8v-1.1h13.2v1.1h-6.2v3.9h5.1v9.3c0.1,1.6-0.7,2.4-2.2,2.4
		c-0.7,0-1.2,0-1.7,0c0-0.4-0.1-0.8-0.2-1.3c0.1,0,0.3,0,0.6,0c0.5,0.1,0.8,0.1,1,0.1c1,0.1,1.4-0.4,1.3-1.3v-8.1h-4v13.9h-1.2
		v-13.9h-3.9V143.4z"/>
	<path d="M15.3,152.4v7.4c0,3.2-0.1,5.6-0.4,7.2c-0.2,1.5-0.7,3-1.5,4.5c-0.3-0.3-0.6-0.5-1-0.7c0.7-1.4,1.2-2.8,1.4-4.1
		c0.2-1.3,0.3-3.6,0.3-6.9v-8.4h8.6v1.1H15.3z M17.3,155.1h5.1v6.7c0.1,1.5-0.6,2.2-1.9,2.2c-0.2,0.1-0.5,0.1-1.1,0.1
		c-0.1-0.3-0.1-0.6-0.2-0.9c0,0.1,0,0-0.1-0.3c0.4,0,0.7,0,1.2,0c0.7,0.1,1-0.3,1-1.2v-5.7h-3v12.7c0.8-0.4,2.2-1.1,4.4-2.2
		c0,0.6,0,1,0.1,1.2c-0.2,0.1-0.5,0.3-1,0.4c-1.7,0.8-2.9,1.4-3.4,1.7c-0.4,0.3-0.8,0.6-1.1,0.8l-0.7-0.9c0.4-0.5,0.6-1,0.6-1.7
		V155.1z M33.4,171.3c-0.7-0.7-1.5-1.5-2.5-2.5c-1-1-1.7-1.7-2.2-2.2c-0.6,1.8-2.3,3.4-5,4.9c-0.3-0.4-0.6-0.7-0.9-1
		c2.3-1.1,3.8-2.3,4.5-3.6c0.7-1.2,1-3.4,1-6.6v-2.2h1.2v2.2c0,2.6-0.2,4.6-0.7,5.9l0.7-0.5c2,1.9,3.6,3.4,4.9,4.6L33.4,171.3z
		 M24.3,155.9h2.9l0.7-3.5h-4.2v-1.1h10.4v1.1h-5l-0.8,3.5h4.9v10.2h-1.1v-9.3h-6.6v9.4h-1.2V155.9z"/>
	<path d="M37,154.4h1.2v17H37V154.4z M38,150.9l1-0.8c1.7,1.7,2.7,2.8,3.1,3.2l-1,0.8C39.9,152.8,38.8,151.7,38,150.9z M42,156.9h9
		v8.5h-9V156.9z M43.2,157.9v6.4h6.6v-6.4H43.2z M43.5,152.6v-1.2h12.6v16.6c0.1,1.9-0.9,2.9-3.1,3c-1.2,0-2.4,0-3.5,0
		c0-0.4-0.1-0.8-0.3-1.3c0.4,0,1,0,1.8,0.1c0.8,0,1.3,0,1.7,0c1.4,0.1,2.1-0.6,2.1-2v-15.3H43.5z"/>
	<path d="M60.2,151.3h5.9v17.6c0.1,1.5-0.6,2.2-2.1,2.2c-0.5,0.1-1.1,0.1-1.8,0.1c0-0.4-0.1-0.8-0.2-1.2c0.1,0,0.4,0,0.8,0
		c0.4,0.1,0.7,0.1,0.9,0.1c0.8,0.1,1.2-0.3,1.2-1.2v-5.2h-3.6c0.1,3.4-0.5,5.9-1.8,7.6c-0.3-0.2-0.6-0.4-0.9-0.7
		c1.1-1.4,1.6-4,1.5-7.7V151.3z M61.4,152.4v4.6H65v-4.6H61.4z M61.4,158v4.6H65V158H61.4z M68.5,151.4h10.2c0,0.4,0,0.9-0.1,1.5
		c0,0.7,0,1.2-0.1,1.6c-0.1,1.9-1.1,2.8-3.2,2.7c-0.5,0.1-1.4,0.1-2.7,0.1c0-0.2,0-0.4-0.1-0.6c0-0.2,0-0.4-0.1-0.5
		c0.8,0,1.6,0,2.6,0c1.6,0.1,2.4-0.4,2.3-1.5c0.1-1,0.2-1.7,0.2-2.2h-7.9v7H79v1.1c-1,3-2.1,5.2-3.3,6.6c0.9,1,2.5,2,4.8,3.1
		c-0.3,0.4-0.5,0.7-0.7,1.1c-2.1-1.1-3.7-2.1-4.9-3.1c-1,1-2.3,2-4,3.1c-0.2-0.3-0.5-0.7-0.9-1.1c1.8-1.1,3.1-2.1,4-3
		c-1.3-1.6-2.2-3.8-3-6.6h-1.4v11h-1.2V151.4z M77.9,160.5h-5.6c0.6,2.4,1.5,4.3,2.6,5.7C76,164.9,77,163,77.9,160.5z"/>
	<path d="M102.7,161.2c-4.1-0.4-7.4-1.2-10-2.4c-2.8,1.2-6.3,2.1-10.4,2.8c-0.2-0.4-0.4-0.8-0.7-1.2c4.1-0.6,7.3-1.4,9.8-2.3
		c-1.7-1.1-3.2-2.4-4.5-4c-1.1,1.1-2.4,2.3-3.9,3.6c-0.1-0.1-0.2-0.2-0.4-0.4c-0.1-0.2-0.3-0.4-0.5-0.5c2.8-2.1,5-4.3,6.6-6.7
		l1.2,0.4c-0.4,0.6-0.9,1.2-1.3,1.7h11.9v1.3c-2.3,2.1-4.4,3.7-6.4,4.7c2.2,1,5.2,1.6,9.3,1.9c-0.1,0.1-0.1,0.2-0.2,0.4
		C103,160.4,102.9,160.7,102.7,161.2z M83.3,162.9h6.4c0.1-0.7,0.2-1.4,0.3-2.3h1.2c0,0.9-0.1,1.7-0.2,2.3h9.3
		c0,0.7-0.1,1.7-0.2,3.1c-0.1,0.5-0.1,1-0.1,1.3c-0.1,2.7-1.4,4-4,3.9c-0.9,0.1-2,0.1-3.3,0.1c0-0.1,0-0.3-0.1-0.4
		c-0.1-0.4-0.1-0.7-0.2-0.9c0.7,0.1,1.8,0.1,3.4,0.1c1.9,0.1,2.9-0.8,3-2.7c0.1-1,0.2-2,0.2-3.1h-8.1c-0.4,3.5-3.1,6-8.1,7.6
		c-0.4-0.5-0.7-0.9-0.9-1.1c4.9-1.4,7.4-3.6,7.7-6.6h-6.2V162.9z M98.8,153.2H87.6c1.6,1.9,3.3,3.3,5,4.2
		C94.8,156.4,96.8,155,98.8,153.2z"/>
</g>
</svg>
