<?xml version="1.0" encoding="utf-8"?>
<!-- Generator: Adobe Illustrator 16.0.0, SVG Export Plug-In . SVG Version: 6.00 Build 0)  -->
<!DOCTYPE svg PUBLIC "-//W3C//DTD SVG 1.1//EN" "http://www.w3.org/Graphics/SVG/1.1/DTD/svg11.dtd">
<svg version="1.1" id="图层_1" xmlns="http://www.w3.org/2000/svg" xmlns:xlink="http://www.w3.org/1999/xlink" x="0px" y="0px"
	 width="1920px" height="1000px" viewBox="0 0 1920 1000" enable-background="new 0 0 1920 1000" xml:space="preserve">
<path fill="#E5C32E" d="M350.598,254.962l-49.521-57.509l-44.726,57.509c-54.314,7.992-103.824,31.945-145.363,75.078
	c-107.028,105.43-105.43,276.344,0,383.385c107.028,107.017,277.948,107.017,383.378,3.197
	c105.435-103.841,105.435-277.964-1.595-384.987C459.231,298.09,393.73,267.738,350.598,254.962 M248.379,574.443
	c-49.521-30.351-65.502-97.435-36.745-145.363c28.763-47.925,97.437-65.49,145.368-36.744
	c47.926,28.763,65.486,97.453,36.74,145.366C361.795,590.43,299.483,604.794,248.379,574.443"/>
<path fill="#040000" d="M682.135,705.447v-9.102c3.459-5.635,6.934-13.22,10.403-22.776h-40.972v-8.453h44.875
	c1.304-3.466,3.475-9.111,6.509-16.907c1.304-3.919,2.379-6.716,3.258-8.475h-44.891v-8.445h48.144
	c2.605-5.623,5.206-13.229,7.801-22.766l9.11,1.951c-2.182,6.503-4.555,13.452-7.16,20.814h78.064v8.445h-81.306
	c-0.879,1.759-1.965,4.556-3.258,8.475c-3.046,7.796-5.202,13.441-6.504,16.907h101.483v8.453H702.301
	c-3.469,9.11-6.94,16.92-10.404,23.423h96.276v9.757l-44.234,39.028c3.024,0.868,7.363,2.818,13.005,5.858
	c5.63,2.605,9.761,4.556,12.367,5.849l-5.207,7.807c-29.508-14.302-57.243-27.31-83.271-39.028l4.561-7.149
	c1.297,0.433,3.458,1.291,6.504,2.605c18.216,8.231,32.729,15.181,43.578,20.807l40.981-37.078H682.135z"/>
<path fill="#040000" d="M911.766,611.765h8.464v134.013h53.993v8.464h-157.42v-8.464h53.33V611.765h8.458v134.013h33.174V611.765z
	 M848.676,710.646c-7.385-21.229-15.404-42.279-24.069-63.095l8.458-3.262c3.894,10,10.175,26.027,18.862,48.146
	c2.606,7.385,4.55,12.587,5.848,15.605L848.676,710.646z M939.744,711.304l-8.447-3.897c6.917-13.009,16.032-34.048,27.309-63.116
	l8.467,3.262C958.827,668.813,949.712,690.064,939.744,711.304"/>
<path fill="#040000" d="M1093.927,756.181c-9.981-10.828-19.092-20.372-27.31-28.614c-3.912,11.283-14.326,23.401-31.232,36.432
	c-1.758-2.183-3.906-4.556-6.503-7.16c13.866-8.688,22.977-17.566,27.31-26.677c4.767-9.11,7.163-23.18,7.163-42.291v-45.53h8.45
	v46.188c0,15.616-1.525,27.968-4.544,37.078l4.544-4.555c2.176,2.183,5.427,5.647,9.771,10.425
	c8.218,8.242,14.958,14.513,20.168,18.856L1093.927,756.181z M1037.992,617.613h59.197v98.235h-8.478v-90.416h-42.269v91.063h-8.451
	V617.613z M1136.861,608.523h8.456v34.474h41.636v8.453h-41.636v40.321h33.19v72.873h-8.478v-9.757h-50.087v9.757h-9.11v-72.873
	h26.028V608.523z M1119.943,746.435h50.087v-46.846h-50.087V746.435z"/>
<path fill="#040000" d="M1213.624,658.61l9.1,2.597c-5.632,21.697-11.279,42.937-16.906,63.752c-3.04-1.301-6.292-2.361-9.754-3.24
	C1201.685,706.092,1207.532,685.073,1213.624,658.61 M1237.704,640.4h9.749v94.315c-0.449,10.851,4.967,16.041,16.246,15.616h31.893
	c11.27,0.425,17.772-4.131,19.509-13.654c1.293-5.627,2.375-13.02,3.246-22.119c1.314,0.433,3.029,0.879,5.21,1.301
	c2.164,0.879,3.689,1.525,4.555,1.95c-0.443,4.788-1.293,10.637-2.607,17.563c-0.443,3.041-0.865,5.191-1.287,6.506
	c-2.607,11.716-11.719,17.563-27.326,17.563h-35.782c-15.608,0-23.404-7.606-23.404-22.765V640.4z M1289.084,657.967
	c-6.081-11.272-14.97-26.231-26.672-44.888l8.45-4.556c1.315,2.184,3.252,5.202,5.849,9.111c6.081,9.089,13.233,20.807,21.473,35.13
	L1289.084,657.967z M1344.385,715.202c-8.699-19.937-17.566-39.025-26.677-57.235l9.11-3.912c1.716,3.912,4.756,9.981,9.09,18.224
	c8.244,16.907,14.325,29.704,18.221,38.368L1344.385,715.202z"/>
<path fill="#040000" d="M1408.775,666.409h46.186c5.216-9.111,10.193-17.989,14.97-26.675l7.807,3.909
	c-4.344,7.807-8.899,15.413-13.665,22.766h26.017v7.16h-81.313V666.409z M1425.693,713.89l7.162,3.263
	c-6.519,14.323-11.939,24.302-16.273,29.929l-7.151-2.597C1412.893,738.85,1418.309,728.657,1425.693,713.89 M1445.851,678.771
	h8.456v16.92h31.227v7.796h-31.227v41.633c0.422,10.829-4.982,16.475-16.252,16.92h-14.314c0-2.597-0.444-5.434-1.299-8.444h13.006
	c6.931,0,10.414-3.052,10.414-9.11v-40.998h-33.19v-7.796h33.19v-16.92H1445.851z M1441.296,611.129l8.478-2.605
	c2.591,6.081,5.188,12.587,7.796,19.515h27.964v7.796h-72.202v-7.796h35.128C1445.851,621.11,1443.46,615.462,1441.296,611.129
	 M1421.781,643.644l7.163-3.909c4.323,6.089,8.667,13.03,13.011,20.826l-7.162,3.897
	C1430.448,656.651,1426.115,649.735,1421.781,643.644 M1477.737,741.222c-3.895-6.928-9.343-14.959-16.268-24.069l6.503-4.556
	c3.473,3.898,7.807,9.99,13.006,18.222c1.742,2.183,3.029,3.897,3.911,5.19L1477.737,741.222z M1478.376,757.484
	c14.748-14.737,21.694-39.039,20.823-72.854v-61.805c17.777-0.868,37.735-2.808,59.857-5.858l2.597,8.466
	c-15.603,2.181-33.613,3.898-53.998,5.21v41.636h58.563v7.796h-22.121v84.57h-9.121v-84.57h-27.321v5.213
	c0.871,34.694-6.292,60.701-21.462,78.054C1483.586,761.594,1480.979,759.653,1478.376,757.484"/>
<path fill="#040000" d="M1623.469,639.734l7.141-4.536c1.715,2.586,4.323,6.495,7.796,11.696
	c6.081,8.686,10.192,14.756,12.373,18.222l-7.817,4.555c-0.428-0.425-1.082-1.304-1.932-2.604c-0.887-1.729-2.413-4.556-4.577-8.456
	c-12.562,4.344-24.702,9.335-36.42,14.959c-3.474,1.293-6.946,3.243-10.403,5.848l-7.158-7.139
	c3.029-3.032,4.556-7.162,4.556-12.375v-38.371c19.087-1.736,37.086-4.565,54.003-8.475l3.246,7.817
	c-16.484,3.476-32.758,6.081-48.788,7.81v37.078c6.941-2.173,18.87-6.938,35.788-14.313c-0.444-0.868-1.305-2.161-2.608-3.898
	C1626.477,643.644,1624.762,641.047,1623.469,639.734 M1594.184,688.527h119.692v75.471h-8.456v-7.16h-102.78v7.807h-8.456V688.527
	L1594.184,688.527z M1602.64,719.758h46.824v-23.432h-46.824V719.758z M1602.64,749.039h46.824V726.92h-46.824V749.039z
	 M1652.726,627.381v-7.807h70.271c0,5.201-0.443,14.313-1.314,27.32v5.87c-0.422,16.038-8.224,23.845-23.404,23.401h-15.592
	c0-3.02-0.654-5.849-1.969-8.442c3.019,0.422,8.683,0.644,16.928,0.644c9.96,0.879,15.148-4.331,15.592-15.603v-9.121
	c0.428-7.363,0.66-12.776,0.66-16.263h-34.473c0.844,25.605-8.688,44.229-28.636,55.945c-1.747-2.172-3.911-4.109-6.514-5.856
	c19.076-10.828,27.965-27.534,26.672-50.089H1652.726z M1705.42,696.326h-46.824v23.432h46.824V696.326z M1658.596,749.039h46.824
	V726.92h-46.824V749.039z"/>
<path fill="#040000" d="M1819.264,702.193l35.127-20.168h-80.674v-8.456h91.722v10.403l-37.075,22.119v6.505h70.266v8.454h-70.266
	v24.068c0.422,12.587-5.87,18.879-18.87,18.879h-21.462c0-0.89-0.232-1.959-0.654-3.263c-0.428-3.029-0.871-5.423-1.293-7.141
	c6.503,0.403,13.433,0.636,20.802,0.636c9.132,0.868,13.243-2.819,12.378-11.059v-22.121H1742.5v-8.454h76.764V702.193z
	 M1748.349,644.944h145.07v30.575h-9.089V653.4h-126.86v22.119h-9.121V644.944z M1761.376,617.635l7.142-4.556
	c7.817,8.667,14.088,16.252,18.859,22.755l-7.813,5.859C1775.231,635.198,1769.172,627.17,1761.376,617.635 M1805.598,613.079
	l7.817-3.909c6.06,7.808,11.93,16.263,17.562,25.374l-8.473,4.555C1816.867,629.563,1811.229,620.875,1805.598,613.079
	 M1856.999,642.997l-7.823-5.87c8.245-8.221,15.619-16.674,22.121-25.362l7.818,5.87c-2.181,2.586-5.632,6.494-10.404,11.696
	C1863.502,635.423,1859.601,639.967,1856.999,642.997"/>
<path fill="#070001" d="M694.33,328.986l-49.521,143.77l-22.369-7.996l49.521-143.756L694.33,328.986z M774.19,253.918v284.338
	h-70.279v-23.964h47.926V253.918H774.19z M852.474,322.597l49.52,143.77l-22.368,7.98L830.104,330.58L852.474,322.597z"/>
<path fill="none" stroke="#070001" stroke-width="0.5" d="M694.33,328.986l-49.521,143.77l-22.369-7.996l49.521-143.756
	L694.33,328.986z M774.19,253.918v284.338h-70.279v-23.964h47.926V253.918H774.19z M852.474,322.597l49.52,143.77l-22.368,7.98
	L830.104,330.58L852.474,322.597z"/>
<path fill="#070001" d="M1226.273,293.851h-63.888v17.57h-23.967v-17.57h-110.235v17.57h-23.966v-17.57h-63.886v-23.963h63.886
	v-15.97h23.966v17.565h110.214v-17.565h23.967v17.565h63.897v22.368H1226.273z M949.91,370.523v-49.52h269.968v51.125h-23.977
	v-28.757h-110.209v20.764h95.845v60.703h-23.961v-38.334h-142.149v52.708h188.486v97.443h-73.479v-23.963h49.513v-51.109H994.642
	v-99.042h68.691v-20.764h-89.45v27.152h-23.965v1.593H949.91z M1155.985,504.716H951.503v-23.964h202.881v23.964H1155.985z
	 M1088.885,431.216l-23.956-23.964l15.966-17.569l23.966,23.962L1088.885,431.216z"/>
<path fill="none" stroke="#070001" stroke-width="0.5" d="M1226.273,293.851h-63.888v17.57h-23.967v-17.57h-110.235v17.57h-23.966
	v-17.57h-63.886v-23.963h63.886v-15.97h23.966v17.565h110.214v-17.565h23.967v17.565h63.897v22.368H1226.273z M949.91,370.523
	v-49.52h269.968v51.125h-23.977v-28.757h-110.209v20.764h95.845v60.703h-23.961v-38.334h-142.149v52.708h188.486v97.443h-73.479
	v-23.963h49.513v-51.109H994.642v-99.042h68.691v-20.764h-89.45v27.152h-23.965v1.593H949.91z M1155.985,504.716H951.503v-23.964
	h202.881v23.964H1155.985z M1088.885,431.216l-23.956-23.964l15.966-17.569l23.966,23.962L1088.885,431.216z"/>
<polygon fill="#070001" points="1539.353,410.458 1539.353,536.656 1274.201,536.656 1274.201,410.458 1296.544,410.458 
	1296.544,512.693 1395.597,512.693 1395.597,384.894 1274.201,384.894 1274.201,276.276 1296.544,276.276 1296.544,362.542 
	1395.597,362.542 1395.597,253.908 1417.957,253.908 1417.957,362.542 1515.392,362.542 1515.392,276.276 1539.353,276.276 
	1539.353,384.894 1417.957,384.894 1417.957,514.292 1515.392,514.292 1515.392,412.052 1539.353,412.052 "/>
<polygon fill="none" stroke="#070001" stroke-width="0.5" points="1539.353,410.458 1539.353,536.656 1274.201,536.656 
	1274.201,410.458 1296.544,410.458 1296.544,512.693 1395.597,512.693 1395.597,384.894 1274.201,384.894 1274.201,276.276 
	1296.544,276.276 1296.544,362.542 1395.597,362.542 1395.597,253.908 1417.957,253.908 1417.957,362.542 1515.392,362.542 
	1515.392,276.276 1539.353,276.276 1539.353,384.894 1417.957,384.894 1417.957,514.292 1515.392,514.292 1515.392,412.052 
	1539.353,412.052 "/>
<path fill="#070001" d="M1860.439,536.656h-265.174V263.484h265.174V536.656z M1619.232,514.292h218.842V285.843h-218.842V514.292z
	 M1817.311,485.545h-180.496v-23.961h78.268v-57.509h-65.488v-22.369h67.09v-44.737h-75.081v-22.343h170.92v23.953h-73.479v43.127
	h67.102v22.369h-67.102v57.509h78.268V485.545L1817.311,485.545z M1786.971,455.184l-23.961-23.968l15.976-17.571l23.962,23.964
	L1786.971,455.184z"/>
<path fill="none" stroke="#070001" stroke-width="0.5" d="M1860.439,536.656h-265.174V263.484h265.174V536.656z M1619.232,514.292
	h218.842V285.843h-218.842V514.292z M1817.311,485.545h-180.496v-23.961h78.268v-57.509h-65.488v-22.369h67.09v-44.737h-75.081
	v-22.343h170.92v23.953h-73.479v43.127h67.102v22.369h-67.102v57.509h78.268V485.545L1817.311,485.545z M1786.971,455.184
	l-23.961-23.968l15.976-17.571l23.962,23.964L1786.971,455.184z"/>
</svg>
