<?xml version="1.0" encoding="utf-8"?>
<!-- Generator: Adobe Illustrator 16.0.0, SVG Export Plug-In . SVG Version: 6.00 Build 0)  -->
<!DOCTYPE svg PUBLIC "-//W3C//DTD SVG 1.1//EN" "http://www.w3.org/Graphics/SVG/1.1/DTD/svg11.dtd">
<svg version="1.1" id="图层_1" xmlns="http://www.w3.org/2000/svg" xmlns:xlink="http://www.w3.org/1999/xlink" x="0px" y="0px"
	 width="179.333px" height="71.333px" viewBox="0 0 179.333 71.333" enable-background="new 0 0 179.333 71.333"
	 xml:space="preserve">
<path fill="#EFCA23" d="M32.297,13.74l-4.565-5.301l-4.123,5.301c-5.007,0.737-9.571,2.945-13.4,6.921
	c-9.866,9.719-9.719,25.475,0,35.341c9.866,9.866,25.622,9.866,35.341,0.295c9.719-9.572,9.719-25.623-0.147-35.489
	C42.311,17.716,36.273,14.918,32.297,13.74 M22.874,43.191c-4.565-2.798-6.038-8.982-3.387-13.4c2.651-4.418,8.982-6.037,13.4-3.387
	c4.418,2.651,6.037,8.983,3.387,13.4C33.329,44.664,27.585,45.989,22.874,43.191"/>
<path d="M62.859,55.267v-0.839c0.319-0.519,0.639-1.219,0.959-2.099h-3.777v-0.78h4.137c0.12-0.319,0.32-0.839,0.6-1.559
	c0.12-0.36,0.219-0.619,0.3-0.78H60.94v-0.779h4.438c0.24-0.519,0.48-1.219,0.719-2.099l0.84,0.18c-0.201,0.6-0.42,1.24-0.66,1.919
	h7.196v0.779h-7.495c-0.081,0.161-0.181,0.42-0.3,0.78c-0.281,0.72-0.48,1.24-0.6,1.559h9.355v0.78h-9.715
	c-0.32,0.839-0.64,1.559-0.959,2.159h8.875v0.899l-4.078,3.598c0.279,0.08,0.679,0.26,1.199,0.54c0.519,0.24,0.9,0.42,1.14,0.539
	l-0.48,0.72c-2.72-1.319-5.277-2.518-7.676-3.598l0.42-0.659c0.12,0.04,0.319,0.119,0.6,0.24c1.679,0.759,3.017,1.399,4.017,1.918
	l3.778-3.418H62.859z"/>
<path d="M84.027,46.632h0.78v12.353h4.977v0.78H75.273v-0.78h4.916V46.632h0.78v12.353h3.058V46.632z M78.211,55.747
	c-0.681-1.958-1.42-3.898-2.219-5.817l0.78-0.3c0.359,0.921,0.938,2.399,1.739,4.438c0.24,0.68,0.419,1.16,0.539,1.439
	L78.211,55.747z M86.606,55.807l-0.779-0.36c0.638-1.199,1.478-3.138,2.518-5.817l0.78,0.3
	C88.365,51.89,87.525,53.849,86.606,55.807"/>
<path d="M100.819,59.944c-0.92-0.998-1.76-1.878-2.518-2.638c-0.36,1.04-1.32,2.158-2.879,3.358c-0.161-0.201-0.36-0.42-0.599-0.66
	c1.278-0.8,2.118-1.619,2.518-2.459c0.439-0.839,0.66-2.137,0.66-3.898V49.45h0.779v4.258c0,1.439-0.141,2.578-0.419,3.418
	l0.419-0.42c0.2,0.201,0.5,0.52,0.9,0.96c0.758,0.76,1.379,1.338,1.859,1.739L100.819,59.944z M95.662,47.171h5.457v9.055h-0.78
	v-8.335h-3.897v8.395h-0.78V47.171z M104.777,46.332h0.779v3.178h3.838v0.78h-3.838v3.717h3.059v6.717h-0.78v-0.9h-4.617v0.9h-0.84
	v-6.717h2.399V46.332z M103.218,59.045h4.617v-4.318h-4.617V59.045z"/>
<path d="M111.853,50.95l0.839,0.239c-0.52,2-1.04,3.958-1.559,5.877c-0.28-0.12-0.58-0.218-0.899-0.299
	C110.752,55.327,111.292,53.389,111.853,50.95 M114.072,49.271h0.899v8.695c-0.041,1,0.458,1.478,1.499,1.439h2.938
	c1.04,0.039,1.639-0.381,1.799-1.259c0.12-0.519,0.22-1.2,0.3-2.039c0.12,0.04,0.279,0.081,0.48,0.12
	c0.199,0.081,0.339,0.141,0.42,0.18c-0.041,0.441-0.12,0.98-0.24,1.619c-0.041,0.28-0.081,0.479-0.12,0.599
	c-0.24,1.08-1.079,1.62-2.518,1.62h-3.299c-1.439,0-2.158-0.701-2.158-2.099V49.271z M118.809,50.89
	c-0.561-1.039-1.38-2.418-2.459-4.138l0.78-0.42c0.12,0.201,0.299,0.48,0.539,0.84c0.56,0.839,1.219,1.919,1.979,3.238
	L118.809,50.89z M123.906,56.167c-0.801-1.838-1.619-3.598-2.458-5.277l0.839-0.36c0.159,0.36,0.439,0.92,0.839,1.679
	c0.759,1.559,1.32,2.739,1.679,3.538L123.906,56.167z"/>
<path d="M129.842,51.669h4.258c0.48-0.84,0.939-1.658,1.38-2.459l0.719,0.36c-0.4,0.72-0.82,1.42-1.259,2.099h2.399v0.66h-7.497
	V51.669z M131.402,56.046l0.66,0.3c-0.6,1.32-1.101,2.24-1.5,2.759l-0.659-0.24C130.222,58.346,130.721,57.406,131.402,56.046
	 M133.261,52.808h0.779v1.559h2.879v0.72h-2.879v3.838c0.039,0.998-0.46,1.518-1.499,1.559h-1.319c0-0.24-0.041-0.501-0.12-0.779
	h1.199c0.639,0,0.96-0.281,0.96-0.84v-3.778h-3.059v-0.72h3.059V52.808z M132.841,46.572l0.78-0.24
	c0.24,0.561,0.479,1.16,0.719,1.799h2.579v0.719h-6.657v-0.719h3.239C133.261,47.492,133.04,46.972,132.841,46.572 M131.042,49.57
	l0.66-0.36c0.398,0.561,0.799,1.2,1.199,1.919l-0.66,0.36C131.841,50.769,131.441,50.131,131.042,49.57 M136.199,58.565
	c-0.359-0.639-0.86-1.379-1.499-2.219l0.6-0.42c0.319,0.36,0.719,0.921,1.199,1.68c0.159,0.201,0.279,0.359,0.36,0.479
	L136.199,58.565z M136.259,60.064c1.358-1.358,1.999-3.598,1.919-6.716v-5.697c1.639-0.08,3.479-0.259,5.518-0.54l0.239,0.78
	c-1.438,0.201-3.099,0.36-4.977,0.48v3.838h5.398v0.719h-2.039v7.796h-0.841v-7.796h-2.518v0.48c0.079,3.199-0.58,5.596-1.979,7.196
	C136.739,60.443,136.499,60.264,136.259,60.064"/>
<path d="M149.633,49.21l0.658-0.419c0.159,0.239,0.399,0.599,0.719,1.079c0.561,0.8,0.939,1.36,1.141,1.679l-0.721,0.42
	c-0.039-0.039-0.1-0.12-0.178-0.24c-0.082-0.159-0.222-0.42-0.421-0.78c-1.159,0.401-2.278,0.861-3.358,1.38
	c-0.32,0.119-0.641,0.299-0.959,0.539l-0.66-0.659c0.279-0.279,0.42-0.66,0.42-1.14v-3.538c1.759-0.159,3.419-0.42,4.979-0.78
	l0.299,0.72c-1.521,0.321-3.02,0.561-4.498,0.72v3.418c0.64-0.2,1.74-0.639,3.299-1.319c-0.041-0.08-0.12-0.2-0.24-0.36
	C149.911,49.57,149.752,49.33,149.633,49.21 M146.934,53.708h11.033v6.956h-0.779v-0.66h-9.475v0.72h-0.779V53.708z M147.713,56.586
	h4.317v-2.159h-4.317V56.586z M147.713,59.285h4.317v-2.039h-4.317V59.285z M152.331,48.071v-0.72h6.477
	c0,0.48-0.041,1.319-0.121,2.519v0.54c-0.039,1.479-0.758,2.199-2.157,2.158h-1.438c0-0.278-0.061-0.539-0.182-0.779
	c0.279,0.04,0.801,0.06,1.561,0.06c0.918,0.081,1.397-0.399,1.438-1.439v-0.84c0.039-0.679,0.06-1.178,0.06-1.499h-3.178
	c0.079,2.36-0.801,4.077-2.639,5.157c-0.161-0.2-0.36-0.379-0.6-0.54c1.758-0.998,2.578-2.538,2.459-4.617H152.331z M157.188,54.427
	h-4.317v2.159h4.317V54.427z M152.871,59.285h4.317v-2.039h-4.317V59.285z"/>
<path d="M167.682,54.967l3.238-1.859h-7.436v-0.779h8.455v0.959l-3.418,2.039v0.6h6.477v0.779h-6.477v2.219
	c0.039,1.159-0.541,1.739-1.739,1.739h-1.979c0-0.081-0.021-0.18-0.06-0.3c-0.04-0.28-0.081-0.5-0.12-0.659
	c0.6,0.038,1.239,0.059,1.919,0.059c0.841,0.08,1.22-0.26,1.14-1.019v-2.039h-7.076v-0.779h7.076V54.967z M161.145,49.69h13.373
	v2.819h-0.838v-2.04h-11.694v2.04h-0.841V49.69z M162.346,47.172l0.658-0.42c0.721,0.8,1.299,1.499,1.739,2.098l-0.72,0.54
	C163.624,48.791,163.065,48.052,162.346,47.172 M166.422,46.752l0.721-0.36c0.559,0.72,1.099,1.499,1.619,2.339l-0.781,0.42
	C167.461,48.272,166.942,47.471,166.422,46.752 M171.161,49.51l-0.721-0.54c0.76-0.758,1.439-1.538,2.039-2.338l0.721,0.54
	c-0.201,0.239-0.52,0.599-0.96,1.079C171.76,48.812,171.401,49.231,171.161,49.51"/>
<path fill="#040000" d="M63.983,20.564l-4.565,13.253l-2.062-0.737l4.565-13.252L63.983,20.564z M71.345,13.644v26.211h-6.479
	v-2.209h4.418V13.644H71.345z M78.561,19.975l4.565,13.253l-2.062,0.736l-4.565-13.253L78.561,19.975z"/>
<path fill="none" stroke="#040000" stroke-width="0.5" d="M63.983,20.564l-4.565,13.253l-2.062-0.737l4.565-13.252L63.983,20.564z
	 M71.345,13.644v26.211h-6.479v-2.209h4.418V13.644H71.345z M78.561,19.975l4.565,13.253l-2.062,0.736l-4.565-13.253L78.561,19.975z
	"/>
<path fill="#040000" d="M113.019,17.325h-5.89v1.62h-2.209v-1.62H94.758v1.62H92.55v-1.62h-5.89v-2.209h5.89v-1.472h2.208v1.619
	h10.161v-1.619h2.209v1.619h5.89V17.325z M87.543,24.393v-4.565h24.886v4.713h-2.209V21.89h-10.16v1.914h8.835v5.596h-2.209v-3.534
	H93.582v4.859h17.376v8.983h-6.774v-2.209h4.565v-4.712H91.667v-9.13h6.332v-1.914h-8.246v2.503h-2.209V24.393z M106.54,36.763
	H87.69v-2.209h18.702v2.209H106.54z M100.354,29.988l-2.208-2.209l1.472-1.62l2.209,2.209L100.354,29.988z"/>
<path fill="none" stroke="#040000" stroke-width="0.5" d="M113.019,17.325h-5.89v1.62h-2.209v-1.62H94.758v1.62H92.55v-1.62h-5.89
	v-2.209h5.89v-1.472h2.208v1.619h10.161v-1.619h2.209v1.619h5.89V17.325z M87.543,24.393v-4.565h24.886v4.713h-2.209V21.89h-10.16
	v1.914h8.835v5.596h-2.209v-3.534H93.582v4.859h17.376v8.983h-6.774v-2.209h4.565v-4.712H91.667v-9.13h6.332v-1.914h-8.246v2.503
	h-2.209V24.393z M106.54,36.763H87.69v-2.209h18.702v2.209H106.54z M100.354,29.988l-2.208-2.209l1.472-1.62l2.209,2.209
	L100.354,29.988z"/>
<polygon fill="#040000" points="141.88,28.074 141.88,39.707 117.437,39.707 117.437,28.074 119.497,28.074 119.497,37.498 
	128.627,37.498 128.627,25.718 117.437,25.718 117.437,15.705 119.497,15.705 119.497,23.657 128.627,23.657 128.627,13.643 
	130.689,13.643 130.689,23.657 139.671,23.657 139.671,15.705 141.88,15.705 141.88,25.718 130.689,25.718 130.689,37.646 
	139.671,37.646 139.671,28.221 141.88,28.221 "/>
<polygon fill="none" stroke="#040000" stroke-width="0.5" points="141.88,28.074 141.88,39.707 117.437,39.707 117.437,28.074 
	119.497,28.074 119.497,37.498 128.627,37.498 128.627,25.718 117.437,25.718 117.437,15.705 119.497,15.705 119.497,23.657 
	128.627,23.657 128.627,13.643 130.689,13.643 130.689,23.657 139.671,23.657 139.671,15.705 141.88,15.705 141.88,25.718 
	130.689,25.718 130.689,37.646 139.671,37.646 139.671,28.221 141.88,28.221 "/>
<path fill="#040000" d="M171.478,39.708h-24.444V14.526h24.444V39.708z M149.243,37.646h20.174V16.587h-20.174V37.646z
	 M167.502,34.996h-16.639v-2.209h7.215v-5.301h-6.037v-2.062h6.185V21.3h-6.921V19.24h15.756v2.208h-6.773v3.976h6.185v2.062h-6.185
	v5.301h7.215V34.996z M164.706,32.197l-2.209-2.209l1.473-1.62l2.208,2.209L164.706,32.197z"/>
<path fill="none" stroke="#040000" stroke-width="0.5" d="M171.478,39.708h-24.444V14.526h24.444V39.708z M149.243,37.646h20.174
	V16.587h-20.174V37.646z M167.502,34.996h-16.639v-2.209h7.215v-5.301h-6.037v-2.062h6.185V21.3h-6.921V19.24h15.756v2.208h-6.773
	v3.976h6.185v2.062h-6.185v5.301h7.215V34.996z M164.706,32.197l-2.209-2.209l1.473-1.62l2.208,2.209L164.706,32.197z"/>
</svg>
