<?xml version="1.0" encoding="utf-8"?>
<!-- Generator: Adobe Illustrator 16.0.0, SVG Export Plug-In . SVG Version: 6.00 Build 0)  -->
<!DOCTYPE svg PUBLIC "-//W3C//DTD SVG 1.1//EN" "http://www.w3.org/Graphics/SVG/1.1/DTD/svg11.dtd">
<svg version="1.1" id="Layer_1" xmlns="http://www.w3.org/2000/svg" xmlns:xlink="http://www.w3.org/1999/xlink" x="0px" y="0px"
	 width="400px" height="200px" viewBox="0 0 400 200" enable-background="new 0 0 400 200" xml:space="preserve">
<path fill="#F9D10B" d="M109.647,70.066V51.594H93.435c-8.884-6.485-19.457-10.15-31.301-10.15c-30.031,0-54,24.393-54,54.281
	c0.142,30.314,24.251,54.565,54,54.565c29.749,0,54-24.251,54-54.565C116.133,86.702,113.877,77.959,109.647,70.066z M81.732,88.816
	c-7.755,0-14.101-6.486-14.101-14.099S74.117,60.62,81.732,60.62c7.612,0,14.098,6.485,14.098,14.098
	C95.83,83.037,89.626,88.816,81.732,88.816z"/>
<g>
	<path fill="#333333" d="M145.164,62.267l-8.112,35.467l-5.718-2.267L139.313,60L145.164,62.267z M164.048,51.467V108h-12.234v-6
		h5.851V51.333h6.383V51.467z M180.936,60.133l7.048,35.467l-5.852,2.4l-7.181-35.467L180.936,60.133z"/>
	<path fill="#333333" d="M217.106,61.467h-6.516V58.8h-12.766v-4.667h12.766v-2.8h6.383V54h15.559v-2.667h6.384V54h12.899v4.667
		h-12.768v2.667h-6.382v-2.667h-15.56V61.467L217.106,61.467z M241.709,95.867v4.667h-43.751v-4.667H241.709z M251.815,63.733v7.6
		h-6.117V68h-40.959v2.667h-6.117v-6.933H251.815L251.815,63.733z M205.937,77.867V88h46.81l-1.862,20.133h-27.526v-4.666h21.675
		l0.799-10.934h-46.41V73.2h15.824l1.861-3.333l7.182,1.066l-1.064,2.267h27.66l-1.862,11.733h-14.893v-4.4h8.644l0.266-2.667
		C243.305,77.867,205.937,77.867,205.937,77.867z M223.623,85.2l-14.097-2.667l5.585-2.667l13.963,2.667L223.623,85.2z"/>
	<path fill="#333333" d="M316.178,54.533v24.133h-22.474v23.466h17.421v-16h6.116v22.133H264.05V86.133h6.117v16.133h17.421v-23.6
		h-22.475V54.533h6.117v18h16.357v-20.4h6.116v20.4h16.357v-18H316.178z"/>
	<path fill="#333333" d="M328.811,52.4h54.523v55.733h-54.523V52.4L328.811,52.4z M377.217,58.4h-42.289v43.733h42.289V58.4
		L377.217,58.4z M373.227,91.467V97.2h-33.644v-5.733h13.431v-10.4h-12.102v-6h12.102v-6h-13.431v-6h33.91v6h-14.229v6h13.032v6
		h-13.032v10.4H373.227L373.227,91.467z M368.173,83.066l5.188,4.667l-5.852,1.6l-5.32-4.667L368.173,83.066z"/>
</g>
<g id="_x30_jKn2B.tif">
</g>
<g enable-background="new    ">
	<path fill="#333333" d="M135.176,117.854l3.594-0.758l6.507,9.894l6.204-9.628h3.934l-8.247,12.356l8.966,13.304l-3.632,0.758
		l-7.338-11.144l-7.075,10.879h-3.896l9.079-13.607L135.176,117.854z"/>
	<path fill="#333333" d="M160.63,143.515v-26.153h3.556v26.153H160.63z"/>
	<path fill="#333333" d="M189.038,143.779l-3.064-8.11h-10.781l-2.951,7.846h-3.592l10.212-26.267h3.556l10.062,25.773
		L189.038,143.779z M180.564,121.492l-4.161,11.031h8.36L180.564,121.492z"/>
	<path fill="#333333" d="M206.624,144.007c-7.338,0-11.991-5.459-11.991-13.531c0-8.11,4.728-13.607,12.065-13.607
		c7.379,0,11.993,5.459,11.993,13.532C218.691,138.473,214.001,144.007,206.624,144.007z M206.661,120.127
		c-5.182,0-8.359,4.019-8.359,10.311s3.216,10.311,8.359,10.311c5.185,0,8.361-4.019,8.361-10.311S211.807,120.127,206.661,120.127z
		"/>
	<path fill="#333333" d="M232.796,133.129v10.386h-3.555v-10.386l-9.23-15.275l3.556-0.758l7.491,12.774l7.3-12.509h3.934
		L232.796,133.129z"/>
	<path fill="#333333" d="M246.486,143.515v-26.153h3.556v26.153H246.486z"/>
	<path fill="#333333" d="M274.175,143.515l-14.337-20.354v20.354h-3.292v-26.153h3.178l13.846,19.596v-19.596h3.291v26.153H274.175z
		"/>
	<path fill="#333333" d="M294.787,144.007c-8.284,0-12.71-5.459-12.71-13.531c0-8.11,4.614-13.607,12.407-13.607
		c3.479,0,5.9,0.873,7.944,2.236l-0.569,3.639c-1.929-1.516-4.35-2.616-7.413-2.616c-5.712,0-8.699,4.019-8.699,10.311
		s3.062,10.271,9.04,10.271c2.268,0,3.783-0.453,5.296-1.288v-6.938h-6.016l-0.491-3.259h10.024v12.244
		C301.368,142.907,298.228,144.007,294.787,144.007z"/>
	<path fill="#333333" d="M308.779,143.515v-4.512h3.744v4.512H308.779z"/>
	<path fill="#333333" d="M335.712,143.515l-14.338-20.354v20.354h-3.292v-26.153h3.177l13.848,19.596v-19.596h3.289v26.153H335.712z
		"/>
	<path fill="#333333" d="M344.672,143.515v-26.153h14.072v3.259h-10.517v7.582h8.17l0.531,3.259h-8.701v8.795h10.895v3.259H344.672z
		"/>
	<path fill="#333333" d="M373.646,120.62v22.895h-3.558V120.62h-8.322v-3.259h19.899l0.527,3.259H373.646z"/>
</g>
</svg>
