<?xml version="1.0" encoding="utf-8"?>
<!-- Generator: Adobe Illustrator 22.0.0, SVG Export Plug-In . SVG Version: 6.00 Build 0)  -->
<svg version="1.1" id="图层_1" xmlns="http://www.w3.org/2000/svg" xmlns:xlink="http://www.w3.org/1999/xlink" x="0px" y="0px"
	 viewBox="0 0 200 40" style="enable-background:new 0 0 200 40;" xml:space="preserve">
<style type="text/css">
	.st0{fill:#040000;stroke:#040000;stroke-width:0.5;}
	.st1{fill:#040000;}
	.st2{fill:#EFCA23;}
	.st3{fill:none;stroke:#000000;stroke-width:0.75;stroke-miterlimit:10;}
	.st4{fill:#E60012;stroke:#E60012;stroke-width:0.5;stroke-miterlimit:10;}
</style>
<g id="Page-1">
	<g id="Artboard-Copy-11" transform="translate(-195.000000, -11.000000)">
		<g id="n-logo" transform="translate(195.000000, 11.000000)">
			<g id="Group" transform="translate(37.117241, 3.234043)">
				<path id="Shape" class="st0" d="M7.1,5.9l-3.1,9l-1.4-0.5l3.1-9L7.1,5.9z M12.1,1.1v17.8H7.7v-1.5h3V1.1H12.1z M17,5.4l3.1,9
					l-1.4,0.5l-3.1-9L17,5.4z"/>
				<path id="Shape_1_" class="st0" d="M40.4,3.6h-4v1.1H35V3.6H28v1.1h-1.5V3.6h-4V2.2h4V1.1H28v1.1H35V1.1h1.5v1.1h4V3.6z
					 M23.1,8.5V5.3H40v3.2h-1.5V6.8h-6.9v1.3h6v3.8h-1.5V9.5h-8.9v3.3H39v6.1h-4.6v-1.5h3.1v-3.2H25.9V7.9h4.3V6.6h-5.6v1.7h-1.5
					V8.5z M35.9,16.9H23.2v-1.5h12.7V16.9z M31.8,12.3l-1.5-1.5l1-1.1l1.5,1.5L31.8,12.3z"/>
				<polygon id="Shape_2_" class="st0" points="60,11 60,18.8 43.4,18.8 43.4,11 44.8,11 44.8,17.4 50.9,17.4 50.9,9.4 43.4,9.4 
					43.4,2.6 44.8,2.6 44.8,7.9 50.9,7.9 50.9,1.1 52.4,1.1 52.4,7.9 58.5,7.9 58.5,2.6 60,2.6 60,9.4 52.4,9.4 52.4,17.5 
					58.5,17.5 58.5,11.1 60,11.1 				"/>
				<path id="Shape_3_" class="st0" d="M80.1,1.8v17.1H63.5V1.8C63.5,1.8,80.1,1.8,80.1,1.8z M65,3.2v14.3h13.7V3.2H65z M77.4,15.7
					H66.1v-1.5H71v-3.6h-4.2V9.1H71V6.4h-4.7V4.9h10.7v1.5h-4.6v2.7h4.2v1.5h-4.2v3.6h4.9V15.7z M75.5,13.7l-1.5-1.5l1-1.1l1.5,1.5
					L75.5,13.7z"/>
			</g>
			<g id="Group_1_" transform="translate(38.731034, 25.063830)">
				<path id="Shape_4_" class="st1" d="M2.5,1.7h7.1v9.1H9V9.9H3.1v0.8H2.5L2.5,1.7z M3,2.3v3.3h5.9V2.3H3z M3,6.1v3.5h5.9V6.1H3z"
					/>
				<path id="Shape_5_" class="st1" d="M13.3,9.6c0.4-0.2,0.8-0.6,1.3-0.9c0,0.1,0,0.2,0,0.3s0,0.2,0,0.3c-0.7,0.4-1.3,0.8-1.9,1.2
					l-0.3-0.4c0.2-0.2,0.3-0.5,0.3-0.8V5.1h-1.1V4.6h1.6L13.3,9.6z M13.5,3.2c-0.5-0.5-1-1-1.5-1.5l0.4-0.3c0.6,0.6,1.2,1.1,1.5,1.5
					L13.5,3.2z M14.4,2V1.5H21V2h-3.9l-0.2,1.5h3.4v2.2h1.2v0.5h-7.3V5.7h1.8L16.3,4h-1.5V3.5h1.7L16.7,2H14.4z M15.1,7.4h5.4v3.5
					H20v-0.6h-4.4v0.6H15L15.1,7.4z M15.7,7.8v1.9H20V7.8H15.7z M19.7,4h-2.9l-0.3,1.7h3.2V4z"/>
				<path id="Shape_6_" class="st1" d="M28,3l0.5-0.3c0.1,0.2,0.2,0.4,0.5,0.7c0.4,0.6,0.6,1,0.8,1.1l-0.5,0.3c0,0-0.1-0.1-0.1-0.2
					c-0.1-0.1-0.2-0.3-0.3-0.6c-0.8,0.2-1.5,0.6-2.3,1c-0.2,0.1-0.5,0.2-0.6,0.3l-0.5-0.5c0.2-0.2,0.3-0.5,0.3-0.8V1.7
					c1.2-0.1,2.3-0.3,3.4-0.6l0.2,0.5c-1,0.2-2.1,0.4-3.1,0.5v2.3c0.5-0.2,1.2-0.5,2.3-0.9c0-0.1-0.1-0.2-0.2-0.2
					C28.2,3.2,28.1,3.1,28,3z M26.2,6.1h7.6v4.8h-0.6v-0.5h-6.5v0.5h-0.6L26.2,6.1L26.2,6.1z M26.7,6.5V8h3V6.5H26.7z M26.7,8.5v1.4
					h3V8.5H26.7z M29.9,2.2V1.7h4.4c0,0.3,0,0.9-0.1,1.7c0,0.2,0,0.3,0,0.3c0,1.1-0.5,1.5-1.5,1.5c-0.5,0-0.8,0-1,0
					c0-0.2,0-0.3-0.1-0.6c0.2,0,0.6,0,1,0c0.6,0.1,1-0.2,1-1c0-0.1,0-0.2,0-0.6c0-0.5,0-0.8,0-1.1h-2.2c0.1,1.6-0.6,2.8-1.8,3.6
					c-0.1-0.2-0.2-0.2-0.4-0.3c1.2-0.7,1.8-1.8,1.7-3.2C31,2.2,29.9,2.2,29.9,2.2z M33.2,6.5h-3V8h3V6.5z M30.2,8.5v1.4h3V8.5H30.2z
					"/>
				<path id="Shape_7_" class="st1" d="M40.4,6.9l2.3-1.3h-5.1V5h5.8v0.6L41,7v0.4h4.4V8H41v1.5c0,0.8-0.3,1.2-1.2,1.2
					c-0.4,0-0.9,0-1.4,0c0-0.1,0-0.1,0-0.2s-0.1-0.3-0.1-0.5c0.4,0,0.8,0,1.3,0c0.6,0.1,0.8-0.2,0.8-0.7V7.9h-4.8V7.4h4.8L40.4,6.9z
					 M35.9,3.3h9.2v1.9h-0.6V3.8h-8.1v1.4h-0.6V3.3z M36.7,1.5l0.5-0.3c0.5,0.6,0.9,1.1,1.2,1.5L38,3C37.6,2.7,37.2,2.2,36.7,1.5z
					 M39.5,1.3L40,1.1c0.4,0.5,0.7,1.1,1.1,1.6L40.5,3C40.2,2.3,39.9,1.8,39.5,1.3z M42.8,3.2l-0.5-0.3c0.5-0.5,1-1.1,1.4-1.6
					l0.5,0.3c-0.2,0.2-0.3,0.4-0.6,0.7C43.2,2.7,43,3,42.8,3.2z"/>
				<path id="Shape_8_" class="st1" d="M48.9,4.7h2.9c0.3-0.6,0.6-1.1,1-1.7l0.5,0.2c-0.2,0.5-0.6,1-0.9,1.5h1.7v0.5h-5.2V4.7z
					 M50,7.7l0.5,0.2c-0.4,0.9-0.7,1.5-1,1.9l-0.5-0.2C49.2,9.2,49.5,8.6,50,7.7z M51.3,5.4h0.6v1.1h2V7h-2v2.7c0,0.7-0.3,1.1-1,1.1
					c-0.2,0-0.6,0-0.9,0c0-0.2,0-0.3-0.1-0.6c0.2,0,0.6,0,0.8,0c0.5,0,0.6-0.2,0.6-0.6V7h-2.1V6.5h2.1V5.4z M51,1.1L51.6,1
					c0.2,0.4,0.3,0.8,0.5,1.2h1.8v0.5h-4.6V2.2h2.3C51.3,1.8,51.1,1.5,51,1.1z M49.7,3.2L50.2,3c0.2,0.4,0.6,0.8,0.8,1.3l-0.5,0.2
					C50.3,4,50.1,3.6,49.7,3.2z M53.3,9.4c-0.2-0.5-0.6-1-1-1.5l0.4-0.3c0.2,0.2,0.5,0.6,0.8,1.1c0.1,0.2,0.2,0.2,0.2,0.3L53.3,9.4z
					 M53.4,10.4c1-1,1.4-2.5,1.3-4.6V1.9c1.1-0.1,2.3-0.2,3.8-0.3l0.2,0.6c-1,0.2-2.1,0.2-3.4,0.3v2.7h3.7v0.5h-1.4V11H57V5.7h-1.7
					V6c0.1,2.2-0.4,3.9-1.4,4.9C53.7,10.7,53.5,10.6,53.4,10.4z"/>
				<path id="Shape_9_" class="st1" d="M59.6,4h1.9V2.3c-0.6,0-1.1,0.1-1.7,0.1c0-0.2-0.1-0.4-0.2-0.6c1.4-0.1,2.7-0.2,4-0.3
					l0.1,0.6c-0.2,0-0.5,0-0.9,0.1c-0.4,0-0.7,0.1-0.9,0.1V4h1.9v0.6h-1.9V6l0.3-0.2c0.7,0.6,1.2,1.1,1.5,1.4l-0.4,0.4
					c-0.5-0.5-1-1-1.4-1.4v4.6h-0.6V5.6c-0.5,1.3-1,2.3-1.7,3.2c-0.1-0.2-0.2-0.4-0.3-0.6c0.8-0.9,1.5-2.1,2-3.6h-1.9V4z M68.9,10.7
					c-0.1-0.3-0.2-0.6-0.3-1.1c-1.5,0.1-2.7,0.2-3.8,0.2c-0.2,0-0.5,0-0.7,0.1l-0.3-0.5c0.2-0.2,0.5-0.6,0.6-1.1
					c0.8-2.1,1.5-4.5,2.1-7.2l0.7,0.1c-0.8,3.2-1.7,5.9-2.6,8.1c0.2,0,0.6-0.1,1-0.1s1.3-0.1,2.7-0.2c-0.3-1-0.8-2.3-1.4-3.8
					l0.6-0.2c0.8,2.2,1.5,4,2,5.3L68.9,10.7z"/>
				<path id="Shape_10_" class="st1" d="M72.5,5.7l1.4-0.5h-3.5V4.8h4.3v0.5L73,6v0.2c0.7-0.1,1.4-0.1,2-0.1c0,0.2,0,0.3,0,0.5
					c-0.2,0-0.6,0-1,0c-0.5,0-0.8,0-1,0V7c0,0.5-0.3,0.8-1,0.9c-0.3,0-0.6,0-1,0c0-0.1,0-0.2,0-0.2S71,7.5,71,7.4c0.3,0,0.6,0,1,0
					c0.4,0,0.6-0.2,0.6-0.5V6.6c-0.2,0-0.6,0.1-1.2,0.1c-0.6,0.1-1,0.1-1.2,0.1l-0.1-0.5c0.1,0,0.2,0,0.3,0c0.6,0,1.3-0.1,2.2-0.2
					L72.5,5.7z M74.7,7.9h0.6v0.6h3.7v0.5h-3.7v0.9h4.6v0.5H70V9.9h4.6V9.1h-3.7V8.6h3.7L74.7,7.9L74.7,7.9z M72.2,1.1l0.5-0.1
					c0.1,0.1,0.1,0.2,0.2,0.3c0.1,0.2,0.2,0.3,0.2,0.3h2.1v0.5h-5V1.7h2.3c0-0.1-0.1-0.2-0.1-0.2C72.3,1.3,72.2,1.2,72.2,1.1z
					 M70.7,2.7h4v1.4h-4V2.7z M71.2,3.2v0.6h3V3.2H71.2z M75.2,2.5h1.1c0-0.2,0-0.7,0-1.5h0.5c0,0.4,0,0.9,0,1.5h1.7
					c0,2.5,0.1,3.9,0.3,4.3c0.1,0.2,0.2,0.3,0.3,0.3c0.2,0,0.2-0.2,0.2-0.5c0.1-0.2,0.1-0.4,0.1-0.7c0-0.1,0-0.2,0-0.3
					c0.2,0.1,0.3,0.2,0.5,0.2c0,0.4-0.1,0.8-0.2,1.1c-0.1,0.5-0.3,0.7-0.6,0.7S78.6,7.4,78.4,7c-0.2-0.5-0.3-1.9-0.3-4h-1.2
					c0,0.8-0.1,1.5-0.2,2c0.1,0.1,0.2,0.2,0.5,0.4c0.2,0.2,0.5,0.4,0.6,0.5l-0.3,0.4C77.3,6.1,77.2,6,77,5.9
					c-0.2-0.2-0.3-0.3-0.5-0.4c-0.2,0.6-0.7,1.4-1.5,2.1L75,7.5c-0.2-0.2-0.2-0.2-0.3-0.3c0.8-0.7,1.3-1.5,1.5-2.1
					C76,5,75.9,4.9,75.6,4.7c-0.2-0.2-0.4-0.3-0.5-0.3L75.5,4c0.2,0.2,0.6,0.5,0.8,0.6c0.2-0.5,0.2-1.1,0.2-1.7h-1.2L75.2,2.5z"/>
			</g>
			<path id="Shape_11_" class="st2" d="M22.7,4.4l-3.1-3.6l-2.8,3.6c-3.4,0.5-6.5,2-9.1,4.7c-6.7,6.6-6.6,17.3,0,24
				c6.7,6.7,17.4,6.7,24,0.2s6.6-17.4-0.1-24.1C29.5,7.2,25.4,5.3,22.7,4.4z M16.3,24.4c-3.1-1.9-4.1-6.1-2.3-9.1s6.1-4.1,9.1-2.3
				s4.1,6.1,2.3,9.1C23.4,25.5,19.5,26.4,16.3,24.4z"/>
		</g>
	</g>
</g>
<line class="st3" x1="132" y1="12.1" x2="132" y2="29.3"/>
<g>
	<path class="st4" d="M149.3,21l-4.8-1.2c-2.3-0.6-3.4-1.9-3.4-4c0-1.4,0.4-2.5,1.3-3.4c1.1-1.2,2.9-1.8,5.4-1.8
		c1.8,0,3.3,0.3,4.3,0.9c0.8,0.4,1.4,1.1,1.9,1.9c0.4,0.6,0.6,1.2,0.6,1.8c0,0.5-0.2,0.7-0.7,0.7c-0.3,0-0.5-0.1-0.6-0.3
		c-0.1-0.1-0.2-0.4-0.3-0.9c-0.2-1-0.9-1.7-2.1-2.2c-0.8-0.4-1.9-0.6-3.2-0.6c-1.3,0-2.4,0.2-3.1,0.6c-1.2,0.7-1.8,1.7-1.8,3
		c0,0.9,0.3,1.6,0.9,2.1c0.5,0.4,1.3,0.7,2.6,1.1l4.8,1.3c1.3,0.3,2.3,1,2.9,1.9c0.5,0.8,0.8,1.6,0.8,2.6c0,1.3-0.4,2.5-1.3,3.4
		c-1.2,1.3-3.1,1.9-5.8,1.9c-2.7,0-4.7-0.7-6-2.1c-0.5-0.6-0.9-1.3-1.2-2.1c-0.2-0.5-0.2-0.9-0.2-1.3c0-0.2,0.1-0.4,0.2-0.5
		c0.1-0.1,0.3-0.2,0.5-0.2c0.2,0,0.4,0.1,0.5,0.2c0.1,0.1,0.3,0.4,0.4,0.9c0.3,1.4,1.1,2.5,2.5,3.1c0.8,0.4,2,0.6,3.6,0.6
		s2.8-0.2,3.6-0.7c0.5-0.3,1-0.8,1.3-1.3c0.3-0.6,0.5-1.2,0.5-2c0-1-0.3-1.8-1-2.3C151.6,21.7,150.7,21.3,149.3,21z"/>
	<path class="st4" d="M172.4,26.2c-0.8,1.1-1.6,1.9-2.3,2.4c-1.3,0.8-2.7,1.2-4.3,1.2c-2.5,0-4.6-0.9-6.1-2.6
		c-0.8-0.9-1.4-2.1-1.8-3.5c-0.3-1.1-0.5-2.3-0.5-3.5c0-2.4,0.6-4.4,1.7-6.1c1.5-2.3,3.9-3.5,7-3.5c2.5,0,4.5,0.8,5.9,2.3
		c0.5,0.6,0.9,1.2,1.2,2c0.1,0.3,0.2,0.6,0.2,0.8c0,0.2-0.1,0.4-0.3,0.5c-0.1,0.1-0.3,0.2-0.5,0.2c-0.2,0-0.4-0.1-0.5-0.2
		c-0.1-0.1-0.3-0.5-0.5-1.1c-0.4-0.9-1-1.6-2-2.2c-1-0.6-2.2-0.9-3.5-0.9c-2.2,0-3.9,0.7-5.2,2.2c-0.7,0.8-1.2,1.8-1.6,3
		c-0.3,1-0.4,2-0.4,3c0,1.9,0.4,3.6,1.3,5.1c0.5,0.9,1.2,1.6,2.1,2.1c1.1,0.6,2.4,1,3.7,1c2.1,0,3.8-0.7,4.9-2
		c1-1.2,1.6-2.6,1.6-4.2V22c0-0.3-0.1-0.5-0.2-0.6c-0.1-0.1-0.2-0.1-0.2-0.1h-4.6c-0.6,0-0.8-0.2-0.8-0.7c0-0.5,0.3-0.7,0.8-0.7h5.7
		c0.6,0,0.9,0.3,0.9,0.9v7.9c0,0.6-0.2,1-0.7,1c-0.5,0-0.7-0.3-0.7-1V26.2z"/>
	<path class="st4" d="M191.6,11.8V24c0,3.9-2.4,5.9-7.1,5.9c-4.7,0-7-2-7-5.9V11.8c0-0.6,0.2-0.9,0.7-0.9s0.7,0.3,0.7,0.9V24
		c0,1.8,0.7,3,2,3.8c0.9,0.5,2.1,0.8,3.5,0.8c1.4,0,2.6-0.3,3.5-0.8c1.4-0.8,2.1-2,2.1-3.8V11.8c0-0.6,0.2-0.9,0.7-0.9
		S191.6,11.1,191.6,11.8z"/>
</g>
</svg>
